<?xml-stylesheet href="centr.css" type="text/css"?><svg xmlns="http://www.w3.org/2000/svg" xml:space="preserve" width="16" height="12" style="shape-rendering:geometricPrecision;text-rendering:geometricPrecision;image-rendering:optimizeQuality;fill-rule:evenodd;clip-rule:evenodd" viewBox="0 0 0.054 0.04"><path d="M.008 0h.038l.006.002.002.005v.026L.052.037.046.04H.008L.002.037 0 .031V.008L.002.002zm.038.003H.008L.005.005.003.008v.023l.002.004.003.001h.038L.049.035.051.031V.008L.049.005z" class="fil0"/><path d="m.027.01.007.003q.003.002.003.006v.002L.034.027.027.03.02.027.017.02q0-.005.003-.007zm.005.005L.027.013.022.015.02.02l.002.005.005.002.005-.002L.034.02z" class="fil0"/></svg>