<?xml-stylesheet href="down_right.css" type="text/css"?><svg xmlns="http://www.w3.org/2000/svg" xml:space="preserve" width="16" height="12" style="shape-rendering:geometricPrecision;text-rendering:geometricPrecision;image-rendering:optimizeQuality;fill-rule:evenodd;clip-rule:evenodd" viewBox="0 0 0.059 0.043"><path d="m.016.018.01-.01h.003l.006.007.004-.003h.002l.001.001.001.021-.001.002L.02.034.019.032V.031L.023.028.016.021V.018M.027.012.02.019l.007.007v.003L.025.031.04.032.039.017.037.019H.034z" class="fil0"/><path d="M.009 0H.05q.004 0 .006.003l.003.005v.028L.056.04v.001L.05.043H.009Q.005.043.003.04 0 .038 0 .034V.009Q0 .005.003.003.005 0 .009 0M.05.004H.009L.005.005.004.009v.025l.001.004.004.001H.05L.054.038.055.034V.009L.054.005z" class="fil0"/></svg>