<?xml-stylesheet href="down_left_icon.css" type="text/css"?><svg xmlns="http://www.w3.org/2000/svg" xml:space="preserve" width="16" height="12" style="shape-rendering:geometricPrecision;text-rendering:geometricPrecision;image-rendering:optimizeQuality;fill-rule:evenodd;clip-rule:evenodd" viewBox="0 0 0.052 0.038"><path d="M.035.017.028.011.022.017H.02L.018.015.017.028.03.027.029.026V.023zm.004 0v.001H.038L.032.024l.003.004.001.001L.034.03.015.032.014.03.015.011.016.01h.002l.003.003.006-.006h.002l.009.009z" class="fil0"/><path d="M.008 0h.036L.05.002l.002.004v.026L.05.036.044.038H.008L.002.036 0 .03V.008L.002.002zm.036.003H.008L.005.005.003.008V.03l.002.004.003.001h.036L.048.034.049.03V.008L.048.005z" class="fil0"/></svg>