<?xml-stylesheet href="down_centr_icon.css" type="text/css"?><svg xmlns="http://www.w3.org/2000/svg" xml:space="preserve" width="16" height="12" style="shape-rendering:geometricPrecision;text-rendering:geometricPrecision;image-rendering:optimizeQuality;fill-rule:evenodd;clip-rule:evenodd" viewBox="0 0 0.051 0.038"><path d="M.031.009H.022v.008L.02.019H.018l.008.01.009-.01H.033L.031.017zM.02.006h.013l.001.001v.009H.04v.003L.028.032H.025L.013.019V.017L.015.016h.004V.007z" class="fil0"/><path d="M.008 0h.036l.005.002.002.005v.024L.049.035.044.038H.008L.002.035 0 .03V.008L.002.002zm.036.003H.008L.005.005.003.008V.03l.002.003.003.002h.036L.047.033.048.03V.008L.047.005z" class="fil0"/></svg>