<?xml-stylesheet href="left_icon.css" type="text/css"?><svg xmlns="http://www.w3.org/2000/svg" xml:space="preserve" width="16" height="12" style="shape-rendering:geometricPrecision;text-rendering:geometricPrecision;image-rendering:optimizeQuality;fill-rule:evenodd;clip-rule:evenodd" viewBox="0 0 0.055 0.04"><path d="M.038.025v-.01H.03L.028.013V.011L.017.02l.011.009V.026L.03.025zM.042.013v.014L.04.028H.031v.006H.028L.014.021V.019L.028.006.03.005l.001.002v.005H.04z" class="fil0"/><path d="M.009 0h.037q.005 0 .006.003l.003.004v.027L.052.038.046.04H.009L.003.038 0 .032V.009Q0 .004.003.003.004 0 .009 0m.037.003H.009L.005.005.003.009v.023l.002.003.004.002h.037L.05.035.052.032V.009L.05.005z" class="fil0"/></svg>