<?xml-stylesheet href="right_icon.css" type="text/css"?><svg xmlns="http://www.w3.org/2000/svg" xml:space="preserve" width="16" height="12" style="shape-rendering:geometricPrecision;text-rendering:geometricPrecision;image-rendering:optimizeQuality;fill-rule:evenodd;clip-rule:evenodd" viewBox="0 0 0.053 0.039"><path d="M.013.012.014.011h.009V.007L.025.005l.001.001.014.012v.003L.026.033H.023V.027H.014L.013.026zm.003.003v.009h.009l.001.002v.002l.01-.009-.01-.008v.002L.025.015z" class="fil0"/><path d="M.008 0h.037l.006.002.002.005v.025L.051.037.045.039H.008L.002.037 0 .031V.008L.002.002zm.037.003H.008L.005.005.003.008v.023l.002.003.003.002h.037L.048.034.05.031V.008L.048.005z" class="fil0"/></svg>