<?xml-stylesheet href="Up_centr_icon.css" type="text/css"?><svg xmlns="http://www.w3.org/2000/svg" xml:space="preserve" width="16" height="12" style="shape-rendering:geometricPrecision;text-rendering:geometricPrecision;image-rendering:optimizeQuality;fill-rule:evenodd;clip-rule:evenodd" viewBox="0 0 0.057 0.042"><path d="M.021.036.02.034V.025H.015L.013.023.014.022.027.007.029.006.03.007l.013.015v.002L.042.025H.037v.009L.036.036zM.023.032h.01V.023L.035.021h.003L.028.01.019.021h.002l.002.002z" class="fil0"/><path d="M.009 0h.039q.004 0 .006.003l.003.003v.029L.054.039Q.052.042.048.042H.009Q.004.042.003.039L0 .033V.009Q0 .004.003.003.004 0 .009 0m.039.004H.009L.005.005.004.009v.024l.001.004.004.001h.039L.052.037.053.033V.009L.052.005z" class="fil0"/></svg>