<?xml-stylesheet href="Up_right_icon.css" type="text/css"?><svg xmlns="http://www.w3.org/2000/svg" xml:space="preserve" width="16" height="12" style="shape-rendering:geometricPrecision;text-rendering:geometricPrecision;image-rendering:optimizeQuality;fill-rule:evenodd;clip-rule:evenodd" viewBox="0 0 0.056 0.041"><path d="m.019.023.007.006.006-.006h.003l.002.002.001-.014-.015.001.002.002v.002zm-.004 0V.021L.022.015.018.011V.01L.019.008.04.007l.001.002-.001.02L.039.03H.037L.034.027.027.033H.025L.015.024z" class="fil0"/><path d="M.009 0h.038q.005 0 .006.003l.003.004v.027L.053.038Q.052.041.047.041H.009Q.004.041.003.038 0 .036 0 .032V.009Q0 .004.003.003.004 0 .009 0m.038.003H.009L.005.005.003.009v.023l.002.004.004.001h.038L.051.036.052.032V.009L.051.005z" class="fil0"/></svg>