<svg xmlns="http://www.w3.org/2000/svg" xml:space="preserve" width="34" height="23"
     style="shape-rendering:geometricPrecision;text-rendering:geometricPrecision;image-rendering:optimizeQuality;fill-rule:evenodd;clip-rule:evenodd" viewBox="0 0 0.237 0.16"><path d="M.162.153q.003 0 .003.003T.162.16H.147A.03.03 0 0 1 .129.152.02.02 0 0 1 .12.135V.047A.05.05 0 0 1 .141.014.06.06 0 0 1 .178.002h.001a.06.06 0 0 1 .04.015.06.06 0 0 1 .018.029V.08L.234.082Q.231.082.23.079V.051Q.229.035.214.022A.05.05 0 0 0 .179.009H.178a.05.05 0 0 0-.033.01.05.05 0 0 0-.018.029v.087a.02.02 0 0 0 .006.012l.015.006zM.051.007A.04.04 0 0 0 .02.02a.04.04 0 0 0-.013.031q0 .019.013.031a.04.04 0 0 0 .031.013L.063.093l.01-.004.003-.001.011.002.009.002L.093.084.09.073.091.07.094.061l.001-.01A.04.04 0 0 0 .082.02.04.04 0 0 0 .051.007m.052.087v.002L.102.098.098.099.086.097.077.095.065.1.051.102A.05.05 0 0 1 0 .051.05.05 0 0 1 .051 0a.05.05 0 0 1 .051.051L.1.062Q.1.068.097.073L.1.082z" class="fil0"/>
    <path d="M.058.067H.051L.048.06H.035L.033.067H.026L.038.035h.007zM.046.054.042.042.037.054zM.062.04V.035h.006V.04zm0 .027V.044h.006v.023z" class="fil0"/></svg>