<svg xmlns="http://www.w3.org/2000/svg" xml:space="preserve" width="16" height="16"
     style="shape-rendering:geometricPrecision;text-rendering:geometricPrecision;image-rendering:optimizeQuality;fill-rule:evenodd;clip-rule:evenodd" viewBox="0 0 0.052 0.051"><path d="M.02.007h.012q.005 0 .008.004l.004.008v.013L.04.04Q.037.043.032.044H.02Q.015.044.012.04.008.037.008.031V.02q0-.006.004-.009Q.015.008.02.007m.012.004H.02L.014.013.011.02v.011l.003.007L.02.04h.012L.038.038.041.031V.02L.038.013z" class="fil0"/>
    <path d="M.016.009V.002L.017 0l.002.002v.007zM.033.009V.002L.035 0l.001.002v.007zM.028.009H.024V.002L.026 0l.002.002zM.019.042V.05L.017.051.016.05V.042zM.036.042V.05L.035.051.033.05V.042zM.024.043V.042h.003l.001.001V.05L.026.051.024.05zM.042.033H.05l.002.001L.05.036H.042zM.042.015H.05l.002.002L.05.019H.042zM.043.027H.042V.024H.05l.002.002L.05.027zM.009.036H.002L0 .034.002.033h.007zM.009.019H.002L0 .017.002.015h.007zM.009.024v.003H.002L0 .026.002.024z"
          class="fil0"/>
    <path d="M.031.033H.028L.027.03H.02L.019.033H.016L.022.018h.003zM.026.027.023.021.021.027zM.033.021V.018h.003v.003zm0 .012V.022h.003v.011z" class="fil1"/></svg>