<svg xmlns="http://www.w3.org/2000/svg" xml:space="preserve" width="15" height="16"
     style="shape-rendering:geometricPrecision;text-rendering:geometricPrecision;image-rendering:optimizeQuality;fill-rule:evenodd;clip-rule:evenodd" viewBox="0 0 0.048 0.052"><path d="M.045.001.047 0v.002l-.01.015-.012.012-.01.008-.006.007-.002.001L.006.042.013.035l.01-.008.012-.012z" class="fil0"/>
    <path d="M.035.019Q.029.018.023.02L.015.024l.001.001q.003.001.003.004L.017.031H.009l-.005.01-.001.008.008-.002.008-.002V.043q0-.006.003-.008h.001l.003.004.001.002L.028.04.03.038.029.031q0-.004.003-.004L.035.03.036.025zm.004.003v.005L.037.035.036.036Q.034.037.034.035L.033.032l.001.005v.002L.033.04.03.043.026.045.025.046.023.044V.039v.004L.022.047.021.048.012.05l-.01.002L0 .051.001.04.006.029.008.028h.006L.011.027.009.026.01.024.022.017.034.015.035.014l.003.001z"
          class="fil0"/></svg>