<svg xmlns="http://www.w3.org/2000/svg" xml:space="preserve" width="20" height="25"
     style="shape-rendering:geometricPrecision;text-rendering:geometricPrecision;image-rendering:optimizeQuality;fill-rule:evenodd;clip-rule:evenodd" viewBox="0 0 0.08 0.097"><path d="M.015.02h.029q.007 0 .011.005.004.004.004.01v.028q0 .007-.004.01a.01.01 0 0 1-.011.005H.015A.02.02 0 0 1 .004.073L0 .063V.035q0-.006.004-.01A.02.02 0 0 1 .015.02m.029.004H.015Q.01.024.007.028L.004.035v.028q0 .005.003.008l.008.003h.029L.052.071.055.063V.035L.052.028Q.049.024.044.024" class="fil0"/>
    <path d="M.076.035.059.043v.012l.017.008zM.057.058V.04l.02-.01h.001Q.08.03.08.032v.035L.079.068H.077zM.01.009Q.008.009.008.007L.009.005A.1.1 0 0 1 .038 0h.005q.013 0 .028.005l.001.002L.07.009A.1.1 0 0 0 .04.004q-.015 0-.03.005M.009.092.008.089.01.088q.015.005.03.005T.07.088l.002.001-.001.003a.1.1 0 0 1-.028.005H.038A.1.1 0 0 1 .009.092"
          class="fil0"/></svg>