<svg xmlns="http://www.w3.org/2000/svg" xml:space="preserve" width="49" height="42"
     style="shape-rendering:geometricPrecision;text-rendering:geometricPrecision;image-rendering:optimizeQuality;fill-rule:evenodd;clip-rule:evenodd" viewBox="0 0 0.555 0.479"><path d="M.277.18a.12.12 0 0 1 .121.114v.013a.12.12 0 0 1-.121.114A.12.12 0 0 1 .157.3a.12.12 0 0 1 .12-.12m.061.059a.087.087 0 0 0-.122 0 .087.087 0 0 0 .061.148Q.314.386.338.361A.08.08 0 0 0 .363.3.1.1 0 0 0 .338.239" class="fil0"/>
    <path d="M.309.195a.1.1 0 0 1 .015.026.225.225 0 0 1 0 .159Q.307.42.277.421.248.42.231.38A.2.2 0 0 1 .217.3c0-.03.005-.059.014-.079A.1.1 0 0 1 .246.195zM.292.234Q.284.215.277.214.271.215.263.234A.2.2 0 0 0 .252.3q0 .041.011.067.008.019.014.02.008-.001.015-.02A.2.2 0 0 0 .303.3.2.2 0 0 0 .292.234"
          class="fil0"/>
    <path d="M.174.283h.2v.035h-.2zM.017.114h.511v.035H.017zM.435.092Q.418.09.417.075.418.062.43.058h.046a.02.02 0 0 1 .013.017.02.02 0 0 1-.017.017zM.354.092Q.338.09.336.075.337.062.349.058h.046a.02.02 0 0 1 .013.017.02.02 0 0 1-.017.017zM.273.092Q.256.09.255.075.256.062.268.058h.046a.02.02 0 0 1 .013.017.02.02 0 0 1-.017.017z"
          class="fil0"/>
    <path d="M.087 0h.381a.087.087 0 0 1 .087.083v.313a.087.087 0 0 1-.087.083H.087A.1.1 0 0 1 .025.454.1.1 0 0 1 0 .393V.087Q.001.05.025.025A.1.1 0 0 1 .087 0m.381.035H.087A.05.05 0 0 0 .05.05a.05.05 0 0 0-.015.037v.306q0 .022.015.036.014.015.037.016h.381A.05.05 0 0 0 .505.429.05.05 0 0 0 .52.393V.087A.05.05 0 0 0 .505.05.06.06 0 0 0 .468.035"
          class="fil0"/></svg>