<svg xmlns="http://www.w3.org/2000/svg" xml:space="preserve" width="16" height="14"
     style="shape-rendering:geometricPrecision;text-rendering:geometricPrecision;image-rendering:optimizeQuality;fill-rule:evenodd;clip-rule:evenodd" viewBox="0 0 0.054 0.047"><path d="M.027.018q.005 0 .008.003.004.003.004.008V.03q0 .005-.004.008L.027.041.019.038Q.016.034.015.029q0-.005.004-.008zm.006.005L.027.021.021.023.019.029l.002.006.006.003.006-.003Q.036.033.035.029q0-.003-.002-.006" class="fil0"/>
    <path d="m.03.019.002.003.001.007-.001.008Q.03.041.027.041T.023.037L.021.029.023.022.024.019zM.028.023.027.021.026.023.025.029l.001.007.001.002.001-.002L.03.029z"
          class="fil0"/>
    <path d="M.017.028h.019v.003H.017zM.002.011h.049v.003H.002zM.042.009.041.007.042.006h.004l.002.001-.002.002zM.034.009.033.007.034.006h.005L.04.007.038.009zM.027.009.025.007.026.006h.005l.001.001L.03.009z"
          class="fil0"/>
    <path d="M.008 0h.038l.006.002.002.005V.04L.052.044.046.047H.008L.002.044 0 .038v-.03L.002.002zm.038.003H.008L.005.005.003.008v.03l.002.004.003.001h.038L.049.042.051.038v-.03L.049.005z"
          class="fil0"/></svg>