<?xml-stylesheet href="button_plus_icon.css" type="text/css"?><svg xmlns="http://www.w3.org/2000/svg" xml:space="preserve" width="16" height="16" style="shape-rendering:geometricPrecision;text-rendering:geometricPrecision;image-rendering:optimizeQuality;fill-rule:evenodd;clip-rule:evenodd" viewBox="0 0 0.054 0.054"><path d="M.012 0h.03q.005 0 .009.003l.003.008v.032L.051.051.042.054h-.03L.003.051 0 .042v-.03L.003.003zm.03.003h-.03q-.004 0-.006.003Q.003.008.003.012v.03q0 .005.003.006.002.003.006.003h.03q.005 0 .006-.003Q.051.047.051.042v-.03q0-.004-.003-.006Q.047.003.042.003" class="fil0"/><path d="m.036.025.001.002-.001.002H.018L.017.027.018.025z" class="fil0"/></svg>