<?xml-stylesheet href="button_right_icon.css" type="text/css"?><svg xmlns="http://www.w3.org/2000/svg" xml:space="preserve" width="16" height="16" style="shape-rendering:geometricPrecision;text-rendering:geometricPrecision;image-rendering:optimizeQuality;fill-rule:evenodd;clip-rule:evenodd" viewBox="0 0 0.052 0.052"><path d="M.021.033v.002h.002L.031.027.032.026.031.025.023.017H.021v.002l.007.007z" class="fil0"/><path d="M.041 0h-.03L.003.003Q.001.006 0 .01v.032q0 .004.003.007l.008.003h.03L.049.049.052.041v-.03L.049.003zm-.03.003h.03l.006.003.002.005v.03L.047.047.041.049h-.03L.006.047.003.041v-.03q0-.003.003-.005z" class="fil0"/></svg>