<svg xmlns="http://www.w3.org/2000/svg" xml:space="preserve" width="16" height="16"
     style="shape-rendering:geometricPrecision;text-rendering:geometricPrecision;image-rendering:optimizeQuality;fill-rule:evenodd;clip-rule:evenodd" viewBox="0 0 0.059 0.059"><path d="M.022.024H.019v.002l.009.009.002.001.001-.001L.04.026V.024H.037L.03.031z" class="fil0"/>
    <path d="M.059.046V.013q0-.006-.004-.009Q.052.001.048 0H.011Q.007 0 .004.004 0 .007 0 .013v.033q0 .005.004.009l.009.004h.033L.055.055Q.059.051.059.046M.055.013v.033L.053.052.046.055H.013L.006.052.004.046V.013L.006.006.013.004h.033l.007.002z"
          class="fil0"/></svg>