<?xml-stylesheet href="button_up_icon.css" type="text/css"?><svg xmlns="http://www.w3.org/2000/svg" xml:space="preserve" width="16" height="16" style="shape-rendering:geometricPrecision;text-rendering:geometricPrecision;image-rendering:optimizeQuality;fill-rule:evenodd;clip-rule:evenodd" viewBox="0 0 0.052 0.051"><path d="M.019.031H.017V.029L.025.021.026.02l.001.001.008.008v.002H.033L.026.024z" class="fil0"/><path d="M.052.011V.04q0 .005-.004.008Q.046.051.042.051H.01L.003.048 0 .04V.011Q0 .006.003.003L.011 0H.04q.005 0 .008.003t.004.008M.048.04V.011L.046.006Q.044.003.04.003H.011L.006.006.003.011V.04q0 .004.003.006l.005.002H.04L.046.046z" class="fil0"/></svg>