<?xml-stylesheet href="buttin_right_circl_icon.css" type="text/css"?><svg xmlns="http://www.w3.org/2000/svg" xml:space="preserve" width="16" height="16" style="shape-rendering:geometricPrecision;text-rendering:geometricPrecision;image-rendering:optimizeQuality;fill-rule:evenodd;clip-rule:evenodd" viewBox="0 0 0.051 0.052"><path d="M.026 0q.01 0 .018.008a.02.02 0 0 1 .007.016v.004a.02.02 0 0 1-.007.016.03.03 0 0 1-.018.008.02.02 0 0 1-.018-.008A.03.03 0 0 1 0 .026Q0 .015.008.008A.02.02 0 0 1 .026 0m.016.01A.02.02 0 0 0 .026.003.02.02 0 0 0 .01.01a.02.02 0 0 0-.007.016q0 .01.007.016.006.006.016.006A.02.02 0 0 0 .042.042.02.02 0 0 0 .048.026.02.02 0 0 0 .042.01" class="fil0"/><path d="M.024.036H.021V.034L.029.026.021.018V.015h.003l.009.01v.002z" class="fil0"/></svg>