<?xml-stylesheet href="button_minus_icon.css" type="text/css"?><svg xmlns="http://www.w3.org/2000/svg" xml:space="preserve" width="16" height="16" style="shape-rendering:geometricPrecision;text-rendering:geometricPrecision;image-rendering:optimizeQuality;fill-rule:evenodd;clip-rule:evenodd" viewBox="0 0 0.053 0.053"><path d="M.012 0h.03Q.047 0 .05.003l.003.008v.032L.05.05.042.053h-.03L.003.05 0 .042v-.03Q0 .007.003.003zm.03.003h-.03q-.004 0-.006.003Q.003.008.003.012v.03q0 .003.003.005Q.008.05.012.05h.03L.047.047.05.042v-.03Q.05.008.047.006z" class="fil0"/><path d="M.028.036.027.037.025.035V.018L.027.016l.001.002z" class="fil0"/><path d="m.036.025.001.002-.002.001H.018L.016.027.018.025z" class="fil0"/></svg>