<?xml-stylesheet href="button_left_icon.css" type="text/css"?><svg xmlns="http://www.w3.org/2000/svg" xml:space="preserve" width="16" height="16" style="shape-rendering:geometricPrecision;text-rendering:geometricPrecision;image-rendering:optimizeQuality;fill-rule:evenodd;clip-rule:evenodd" viewBox="0 0 0.053 0.053"><path d="M.032.033v.003H.029L.021.028V.025L.029.017h.003V.02L.025.026z" class="fil0"/><path d="M.012 0h.03Q.047 0 .05.003L.053.01v.033L.05.05.042.053h-.03L.003.05 0 .042v-.03Q0 .007.003.003zm.03.003h-.03q-.004 0-.006.003Q.003.008.003.012v.03q0 .003.003.005Q.008.05.012.05h.03L.047.047.05.042v-.03Q.05.008.047.006z" class="fil0"/></svg>