<?xml-stylesheet href="camera_stop_icon.css" type="text/css"?><svg xmlns="http://www.w3.org/2000/svg" xml:space="preserve" width="16" height="16" style="shape-rendering:geometricPrecision;text-rendering:geometricPrecision;image-rendering:optimizeQuality;fill-rule:evenodd;clip-rule:evenodd" viewBox="0 0 0.054 0.054"><path d="M.007.04.006.042H.004L.003.039.002.037V.018L.005.011.012.008h.019L.033.01.031.011H.012L.008.013H.007L.006.018v.02zM.041.017v.022L.038.044Q.035.046.031.047H.015L.013.045.015.043h.016L.036.041.037.037V.018L.039.016z" class="fil0"/><path d="M.038.02.052.012h.002v.03L.053.043H.052L.038.035.037.033V.022zM.051.016l-.01.007v.009l.01.006zM.003.053H.001L0 .051l.046-.05L.048 0v.003z" class="fil0"/></svg>