<?xml-stylesheet href="copy_icon.css" type="text/css"?><svg xmlns="http://www.w3.org/2000/svg" xml:space="preserve" width="13" height="16" style="shape-rendering:geometricPrecision;text-rendering:geometricPrecision;image-rendering:optimizeQuality;fill-rule:evenodd;clip-rule:evenodd" viewBox="0 0 0.038 0.048"><path d="M.011 0h.013l.014.014v.024L.037.04.034.041H.011L.008.04.007.037V.004L.008.001zm.012.003H.01v.035h.025V.015z" class="fil0"/><path d="M.035.016H.026L.023.014.022.012V.001L.023 0l.001.001.011.011zM.026.013h.006L.025.005zM.003.007v.03q0 .003.003.005.002.003.006.003h.019q0 .002-.002.003H.012Q.007.048.004.044 0 .041 0 .037V.009Q0 .007.003.007" class="fil0"/></svg>