<?xml-stylesheet href="corner_icon.css" type="text/css"?><svg xmlns="http://www.w3.org/2000/svg" xml:space="preserve" width="16" height="10" style="shape-rendering:geometricPrecision;text-rendering:geometricPrecision;image-rendering:optimizeQuality;fill-rule:evenodd;clip-rule:evenodd" viewBox="0 0 0.057 0.037"><path d="M.001.037 0 .035.002.033h.033L.054.007h.002l.001.002-.02.027-.001.001z" class="fil0"/><path d="M.046.017.048.016V.014L.047.013.043.012q-.004.001 0 .004zM.033.015C.035.015.035.011.032.011L.029.012q-.004.003 0 .004zM.021.02Q.022.017.019.018L.016.021q0 .004.003.002zM.015.032Q.014.028.011.031v.004q.001.003.004 0zM.019 0l.004.002.001.003v.001L.023.01.019.011.015.01.013.006.015.002zM.02.004H.017L.016.006l.001.001.002.001L.02.007.021.006z" class="fil0"/></svg>