<svg xmlns="http://www.w3.org/2000/svg" xml:space="preserve" width="25" height="25"
     style="shape-rendering:geometricPrecision;text-rendering:geometricPrecision;image-rendering:optimizeQuality;fill-rule:evenodd;clip-rule:evenodd" viewBox="0 0 0.132 0.133">
    <path d="M.011.011h.041q.005 0 .008.003l.003.005v.106L.06.13.052.133H.011L.003.13 0 .122v-.1Q0 .017.003.014zm.041.005H.011L.007.018.005.022v.1l.002.004.004.002h.041L.056.126.058.122v-.1L.056.018z"
          fill="currentColor"/>
    <path d="M0 .122V.081Q0 .076.003.074L.01.07h.102q.005.001.007.004a.01.01 0 0 1 .004.007v.041q0 .005-.004.008L.112.133H.011L.003.13zM.005.081v.041l.002.004.004.002h.101L.116.126.117.122V.081L.116.077.112.076H.011L.007.077z"
          fill="currentColor"/>
    <path d="M.062.029.088.003.095 0l.007.003.027.027.003.007-.003.008-.026.026L.1.073H.092L.089.071.062.043.06.042V.031zm.03-.022L.066.033.064.036.066.04l.027.027.003.001.003-.001.027-.026.001-.004L.126.034.098.007.095.005z"
          fill="currentColor"/>
    <path d="M.111.039.107.043.101.041.094.048l.003.006-.004.004L.082.033.086.029zm-.014 0L.088.035l.004.009zM.098.023.095.02.098.016l.003.003zm.015.015L.1.025.103.021l.013.013z"
          fill="currentColor"/>
</svg>