<?xml-stylesheet href="eye_icon.css" type="text/css"?><svg xmlns="http://www.w3.org/2000/svg" xml:space="preserve" width="16" height="9" style="shape-rendering:geometricPrecision;text-rendering:geometricPrecision;image-rendering:optimizeQuality;fill-rule:evenodd;clip-rule:evenodd" viewBox="0 0 0.057 0.034"><path d="M.003.024.001.025 0 .023A.03.03 0 0 1 .013.004Q.021.001.028 0h.001q.007 0 .015.004.009.006.013.019L.056.025.053.024A.03.03 0 0 0 .042.007a.03.03 0 0 0-.027 0 .04.04 0 0 0-.012.017" class="fil0"/><path d="M.029.011q.005 0 .007.003A.01.01 0 0 1 .04.022L.037.03Q.033.034.028.034T.02.03L.017.022q0-.005.003-.008zm.005.006Q.032.014.028.014L.023.017Q.021.019.021.022t.002.006L.028.03.034.028.036.022z" class="fil0"/></svg>