<?xml-stylesheet href="figure_icon.css" type="text/css"?><svg xmlns="http://www.w3.org/2000/svg" xml:space="preserve" width="16" height="14" style="shape-rendering:geometricPrecision;text-rendering:geometricPrecision;image-rendering:optimizeQuality;fill-rule:evenodd;clip-rule:evenodd" viewBox="0 0 0.059 0.051"><path d="M.002 0h.039l.002.002v.031L.041.035H.002L0 .033V.002zM.04.004H.004v.027H.04z" class="fil0"/><path d="M.041.016q.008 0 .013.005l.005.01v.004L.054.046a.02.02 0 0 1-.013.005.02.02 0 0 1-.012-.005.02.02 0 0 1-.005-.013q0-.007.005-.012A.02.02 0 0 1 .041.016m0 .003L.032.023a.01.01 0 0 0-.004.01q0 .006.004.01t.009.004q.006 0 .01-.004a.01.01 0 0 0 .004-.01.01.01 0 0 0-.004-.01z" class="fil0"/></svg>