<?xml-stylesheet href="figure_big_icon.css" type="text/css"?><svg xmlns="http://www.w3.org/2000/svg" xml:space="preserve" width="31" height="27" style="shape-rendering:geometricPrecision;text-rendering:geometricPrecision;image-rendering:optimizeQuality;fill-rule:evenodd;clip-rule:evenodd" viewBox="0 0 0.208 0.179"><path d="M.007 0h.139q.007 0 .007.006v.112q0 .005-.007.006H.007A.01.01 0 0 1 0 .117v-.11Q0 0 .007 0M.14.013H.013v.098H.14z" class="fil0"/><path d="M.146.055q.027 0 .044.019.017.016.018.04v.007q0 .024-.018.04a.06.06 0 0 1-.087 0A.06.06 0 0 1 .085.117q0-.026.018-.043A.06.06 0 0 1 .146.055m0 .013a.05.05 0 0 0-.034.015.05.05 0 0 0-.014.034q0 .021.014.035a.05.05 0 0 0 .034.014.05.05 0 0 0 .035-.014.05.05 0 0 0 .014-.035.05.05 0 0 0-.014-.034.05.05 0 0 0-.035-.015" class="fil0"/></svg>