<?xml-stylesheet href="graphics_control_icon.css" type="text/css"?>
<svg xmlns="http://www.w3.org/2000/svg" xml:space="preserve" width="34" height="25"
     style="shape-rendering:geometricPrecision;text-rendering:geometricPrecision;image-rendering:optimizeQuality;fill-rule:evenodd;clip-rule:evenodd" viewBox="0 0 0.24 0.177"><path fill="currentColor" d="M.043 0h.153q.019 0 .031.013A.05.05 0 0 1 .24.04v.097a.04.04 0 0 1-.013.027.04.04 0 0 1-.031.013H.043a.04.04 0 0 1-.03-.013A.04.04 0 0 1 0 .134V.043q0-.018.013-.03A.04.04 0 0 1 .043 0m.153.007H.043a.03.03 0 0 0-.025.011.03.03 0 0 0-.011.025v.091q0 .015.011.025A.03.03 0 0 0 .043.17h.153Q.211.17.222.159A.03.03 0 0 0 .233.134V.043A.03.03 0 0 0 .222.018.04.04 0 0 0 .196.007" />
    <path fill="currentColor" d="M.116.055A.004.004 0 0 1 .112.051q0-.003.004-.003h.052q.003 0 .003.003 0 .004-.003.004zM.116.091Q.113.091.112.088q0-.003.004-.004h.093q.003.001.004.004 0 .003-.004.003zM.116.126Q.113.126.112.123q0-.004.003-.004H.19q.003 0 .003.004 0 .003-.004.003zM.063.096Q.06.096.06.093T.063.089h.021q.003 0 .004.004Q.088.11.08.117.073.124.058.124T.037.119Q.03.114.028.102v-.03A.03.03 0 0 1 .036.057.03.03 0 0 1 .056.05q.015 0 .021.006a.02.02 0 0 1 .008.015q0 .003-.002.004L.078.072A.02.02 0 0 0 .073.061.03.03 0 0 0 .056.057a.02.02 0 0 0-.015.006.02.02 0 0 0-.007.014L.035.1q.002.01.006.013.006.004.017.004T.075.112Q.08.107.081.096z"
          /></svg>