<?xml-stylesheet href="image_plus_icon.css" type="text/css"?><svg xmlns="http://www.w3.org/2000/svg" xml:space="preserve" width="16" height="16" style="shape-rendering:geometricPrecision;text-rendering:geometricPrecision;image-rendering:optimizeQuality;fill-rule:evenodd;clip-rule:evenodd" viewBox="0 0 0.052 0.051"><path d="M.028.007h.017L.05.009l.002.004v.032L.05.049.045.051H.014L.009.049.007.044V.028L.01.029v.015l.002.003.002.001h.031L.048.047.049.044v-.03L.048.012.045.01H.029z" class="fil0"/><path d="M.01.047.025.031h.001L.03.03l.004.001.016.016-.002.001H.046L.032.034.03.033.028.034.013.048H.011zM.039.016l.003.001.002.004v.001L.042.025.039.027.035.025.033.021.035.017zM.04.019H.037L.036.021l.001.002H.04L.041.021z" class="fil0"/><path d="M.013 0q.013.001.013.013T.013.026A.013.013 0 0 1 0 .013Q.001.001.013 0m.001.02L.013.021.012.02V.015h.002V.012H.012V.007L.013.005l.001.001V.02M.02.012l.001.001L.02.015H.007L.005.013.006.012z" class="fil1"/></svg>