<?xml-stylesheet href="image_icon.css" type="text/css"?><svg xmlns="http://www.w3.org/2000/svg" xml:space="preserve" width="16" height="13" style="shape-rendering:geometricPrecision;text-rendering:geometricPrecision;image-rendering:optimizeQuality;fill-rule:evenodd;clip-rule:evenodd" viewBox="0 0 0.052 0.042"><path d="M.007 0h.038L.05.002l.002.004v.03L.05.04.045.042H.007L.002.04 0 .035V.007L.002.002zm.038.003H.007L.004.004.003.007v.028l.001.003.003.001h.038L.048.038.049.035V.007L.048.004z" class="fil0"/><path d="m.013.007.005.002.001.003v.003L.018.018.013.02.009.018.007.013.009.009zm.002.005L.013.011.011.012v.003l.002.001h.002V.015L.016.013zM.001.036.012.025h.001L.016.023l.003.002.003.003.01-.012.003-.001.004.001L.05.03v.003L.049.034.036.019.035.018.034.019.023.031H.021L.017.027H.015L.003.038z" class="fil0"/></svg>