<?xml-stylesheet href="image_big_icon.css" type="text/css"?><svg xmlns="http://www.w3.org/2000/svg" xml:space="preserve" width="38" height="30" style="shape-rendering:geometricPrecision;text-rendering:geometricPrecision;image-rendering:optimizeQuality;fill-rule:evenodd;clip-rule:evenodd" viewBox="0 0 0.331 0.266"><path d="M.045 0h.24q.02 0 .032.013a.05.05 0 0 1 .014.03v.18a.05.05 0 0 1-.014.03.04.04 0 0 1-.032.013h-.24A.044.044 0 0 1 0 .221V.045Q0 .026.013.013A.05.05 0 0 1 .045 0m.24.021h-.24q-.01 0-.017.007Q.021.034.021.045v.176q0 .01.007.017.006.008.017.008h.24A.03.03 0 0 0 .303.238.02.02 0 0 0 .31.221V.045A.024.024 0 0 0 .285.021" class="fil0"/><path d="M.085.047q.016 0 .027.011a.04.04 0 0 1 .011.026v.002q0 .017-.011.026L.111.113a.04.04 0 0 1-.026.011.04.04 0 0 1-.027-.012.04.04 0 0 1-.012-.027.04.04 0 0 1 .039-.038m.012.026A.01.01 0 0 0 .085.067a.02.02 0 0 0-.013.006.02.02 0 0 0-.005.012q0 .008.005.013a.02.02 0 0 0 .013.005.02.02 0 0 0 .012-.005.02.02 0 0 0 .006-.013.01.01 0 0 0-.006-.012M.006.228.079.156.08.155A.03.03 0 0 1 .099.148Q.109.147.12.155l.02.019L.2.103Q.21.093.222.092t.023.011L.311.18v.032L.23.117Q.225.113.222.113T.215.117a1 1 0 0 1-.067.079.01.01 0 0 1-.015 0L.107.171.1.168.092.171.02.242z" class="fil0"/></svg>