<?xml-stylesheet href="image_editor_icon.css" type="text/css"?><svg xmlns="http://www.w3.org/2000/svg" xml:space="preserve" width="16" height="13" style="shape-rendering:geometricPrecision;text-rendering:geometricPrecision;image-rendering:optimizeQuality;fill-rule:evenodd;clip-rule:evenodd" viewBox="0 0 0.052 0.043"><path d="M.052.035.049.041.042.043H.01L.003.041 0 .034V.013L.003.006.01.004h.025L.031.007H.01L.005.009.003.013v.021l.002.004L.01.04h.032L.047.038.048.034V.019L.052.016z" class="fil0"/><path d="M.043.001h.005L.05.002l.002.002v.002L.051.009.038.022.033.024.029.023H.028V.019L.03.015zm.004.003H.045L.032.017V.02L.031.021h.001L.036.019.049.007V.005L.048.004zM.003.019.011.013.015.012l.003.002.002.002-.001.005-.003.004v.003l.001.001.002-.001.005-.002.002.001-.001.002L.02.031.017.032Q.014.032.014.03L.013.028V.024L.016.019V.016H.012L.003.023z" class="fil0"/></svg>