<?xml-stylesheet href="info_education_icon.css" type="text/css"?><svg xmlns="http://www.w3.org/2000/svg" xml:space="preserve" width="20" height="25" style="shape-rendering:geometricPrecision;text-rendering:geometricPrecision;image-rendering:optimizeQuality;fill-rule:evenodd;clip-rule:evenodd" viewBox="0 0 0.074 0.095"><path d="M.008 0H.04l.034.034v.054L.072.092.067.095H.008L.002.092 0 .087V.008L.002.002zm.03.004h-.03L.005.005.004.008v.079L.005.09l.003.001h.059L.07.09.071.087V.036z" class="fil0"/><path d="M.071.036H.046L.041.034Q.038.032.038.028V.003L.04.001l.002.001.029.029zM.046.033h.021L.042.007v.021l.001.003zM.026.044l.001.001-.002.002H.017L.015.045.017.044zM.036.06l.002.002-.002.001H.017L.015.062.017.06zM.046.077l.002.001Q.048.08.046.08H.017Q.015.08.015.078L.017.077z" class="fil0"/></svg>