<?xml-stylesheet href="lan_icon.css" type="text/css"?><svg xmlns="http://www.w3.org/2000/svg" xml:space="preserve" width="37" height="25" style="shape-rendering:geometricPrecision;text-rendering:geometricPrecision;image-rendering:optimizeQuality;fill-rule:evenodd;clip-rule:evenodd" viewBox="0 0 0.25 0.17"><path d="M.025 0h.074q.005 0 .008.003.002.003.003.008v.045L.107.063.099.066H.025L.017.063.014.055V.011q0-.005.003-.008zm.074.007H.025L.022.008.02.011v.044l.002.003.003.001h.074L.102.058.103.055V.011L.102.008zM.003.081Q.001.081 0 .077 0 .075.003.074H.12q.003 0 .003.003T.12.081zM.152.089h.074l.007.003.004.007v.046L.233.152.226.155H.152L.144.152.141.144V.1q0-.005.003-.008zm.074.007H.152L.149.097.147.1v.044l.002.003.003.001h.074L.229.147.23.144V.1L.229.097zM.13.17Q.127.17.127.166q0-.003.003-.003h.117Q.25.163.25.166T.247.17zM.067.103Q.067.1.07.1.074.1.074.103v.03h.031q.004 0 .004.003T.105.139H.07Q.067.139.067.137z" class="fil0"/></svg>