<?xml-stylesheet href="lan_mini_icon.css" type="text/css"?><svg xmlns="http://www.w3.org/2000/svg" xml:space="preserve" width="16" height="13" style="shape-rendering:geometricPrecision;text-rendering:geometricPrecision;image-rendering:optimizeQuality;fill-rule:evenodd;clip-rule:evenodd" viewBox="0 0 0.056 0.046"><path d="M.004 0h.017l.003.001.001.003v.01L.024.017.021.018H.004L.001.017 0 .014v-.01L.001.001zm.017.003H.004v.001H.003v.01h.019000000000000003v-.01H.021zM.002.025 0 .023.002.021h.021l.002.002-.002.002zM.035.022h.017l.003.001.001.002v.011L.055.038.052.039H.035L.032.038.031.035V.026L.032.023zm.017.003H.034v.011h.018000000000000002V.025M.013.029.015.028l.001.001v.007h.007l.002.001-.002.002H.015L.013.038zM.032.046.031.045.033.043h.021l.002.002-.002.001z" class="fil0"/></svg>