<?xml-stylesheet href="layer_icon.css" type="text/css"?><svg xmlns="http://www.w3.org/2000/svg" xml:space="preserve" width="16" height="14" style="shape-rendering:geometricPrecision;text-rendering:geometricPrecision;image-rendering:optimizeQuality;fill-rule:evenodd;clip-rule:evenodd" viewBox="0 0 0.058 0.049"><path d="m.005.023.002.001v.002L.004.029v.003l.002.001.016.011.007.001.008-.002.015-.009.002-.002L.055.03.054.029.053.027.052.025.054.024l.003.003.001.002v.002L.057.034.053.037.039.046l-.01.003L.02.047.004.036.001.034 0 .03.001.027z" class="fil0"/><path d="m.006.022.016.01.007.002.008-.002.015-.009L.054.02.055.019.054.017.053.015.036.005Q.033.003.029.004q-.004 0-.008.002L.007.015q-.002 0-.003.002V.02zM.058.018v.001L.057.022.053.026.039.035l-.01.002Q.025.037.02.035L.004.025.001.022 0 .019.001.015.005.012.02.003Q.024 0 .029 0l.009.002.016.01.003.003z" class="fil0"/></svg>