<?xml-stylesheet href="link_icon.css" type="text/css"?><svg xmlns="http://www.w3.org/2000/svg" xml:space="preserve" width="16" height="16" style="shape-rendering:geometricPrecision;text-rendering:geometricPrecision;image-rendering:optimizeQuality;fill-rule:evenodd;clip-rule:evenodd" viewBox="0 0 0.059 0.058"><path d="M.05.043.052.041l.002.001v.002l-.005.01a.02.02 0 0 1-.011.004H.015q-.007 0-.01-.004A.02.02 0 0 1 0 .043V.018Q0 .012.005.007l.01-.004h.009l.001.002-.001.002H.015L.007.01.004.018v.025q0 .005.003.008.003.004.008.004h.023q.005 0 .008-.004A.01.01 0 0 0 .05.043" class="fil0"/><path d="M.011.037q0-.01.006-.017t.02-.009V.002L.039 0 .04.001l.018.018v.002L.041.039H.038L.037.037V.029l-.01.002-.013.008H.011zM.02.022a.02.02 0 0 0-.005.012l.01-.006Q.033.025.039.026l.002.002v.005L.054.02.04.006v.007L.039.014Q.024.016.02.022" class="fil0"/></svg>