<?xml-stylesheet href="lock_icon.css" type="text/css"?><svg xmlns="http://www.w3.org/2000/svg" xml:space="preserve" width="13" height="16" style="shape-rendering:geometricPrecision;text-rendering:geometricPrecision;image-rendering:optimizeQuality;fill-rule:evenodd;clip-rule:evenodd" viewBox="0 0 0.035 0.044"><path d="M.006.013h.023l.004.002.002.003v.021L.033.042.029.044H.006L.002.042 0 .037V.019L.002.015zm.023.003H.006L.004.017.003.019v.018L.004.04l.002.001h.023L.031.04.032.037V.019L.031.017z" class="fil0"/><path d="M.009.014V.007q0-.003.003-.005L.016 0l.005.001q.003.001.005.005L.025.007H.023L.02.003H.016L.014.004.012.007v.007z" class="fil0"/><path d="M.017.025Q.02.025.02.028v.001q0 .002-.003.002-.002 0-.002-.003z" class="fil1"/></svg>