<?xml-stylesheet href="ndi_icon.css" type="text/css"?><svg xmlns="http://www.w3.org/2000/svg" xml:space="preserve" width="49" height="49" style="shape-rendering:geometricPrecision;text-rendering:geometricPrecision;image-rendering:optimizeQuality;fill-rule:evenodd;clip-rule:evenodd" viewBox="0 0 0.539 0.539"><path d="M.396.194h.038v.154H.397zm.055.155c-.006 0-.006 0-.01-.002C.439.339.44.331.45.334c0 0 .005-.001.005.007q0 .006-.004.008M.248.348V.194c.033 0 .072-.005.1.009a.076.076 0 0 1 0 .135c-.028.014-.066.01-.1.01m-.109 0H.101V.194H.14c.005 0 .009.01.014.017l.012.02c.007.01.02.038.029.035C.203.261.199.243.199.233L.2.194h.037v.154H.198Q.193.348.192.342L.157.287C.154.282.151.275.144.276S.139.289.139.297zM.085.046Q.06.049.051.068C.043.081.045.1.045.118v.337c0 .047-.005.04.073.04h.224A.15.15 0 0 0 .481.408C.496.373.494.35.494.309V.084C.494.038.5.045.422.045.392.045.1.044.085.046" class="fil0"/><path d="M.036.023h.431c.024 0 .046-.004.049.012.002.009 0 .391 0 .432 0 .017.006.046-.011.049C.495.518.114.517.072.517.056.517.026.522.023.504c-.002-.009 0-.39 0-.432C.023.046.018.026.036.023M0 .038V.5c0 .023.018.039.034.039h.471C.514.539.525.532.53.527A.04.04 0 0 0 .539.5V.038C.539.017.521 0 .498 0H.042C.018 0 0 .017 0 .038" class="fil0"/><path d="M.35.278C.357.229.301.224.289.229.283.231.286.255.286.263v.038c0 .007-.001.012.006.012C.319.316.345.307.35.278" class="fil0"/></svg>