<?xml-stylesheet href="new_screen_icon.css" type="text/css"?><svg xmlns="http://www.w3.org/2000/svg" xml:space="preserve" width="15" height="14" style="shape-rendering:geometricPrecision;text-rendering:geometricPrecision;image-rendering:optimizeQuality;fill-rule:evenodd;clip-rule:evenodd" viewBox="0 0 0.052 0.046"><path d="M.005.011h.031l.003.001.001.003v.019L.039.037.036.039H.005L.001.037 0 .034V.016L.001.012zm.031.003H.003v.020999999999999998l.002.001h.031L.037.035V.014zM.011.046.01.044.011.043h.018L.03.044.029.046z" class="fil0"/><path d="M.042.025v.003H.041h.006Q.05.028.052.023V.004Q.05.001.047 0H.016Q.011 0 .011.005v.004h.003v.008-.012L.016.003h.031l.002.002v.018L.047.025z" class="fil1"/></svg>