<?xml-stylesheet href="newscreen_icon.css" type="text/css"?><svg xmlns="http://www.w3.org/2000/svg" xml:space="preserve" width="51" height="45" style="shape-rendering:geometricPrecision;text-rendering:geometricPrecision;image-rendering:optimizeQuality;fill-rule:evenodd;clip-rule:evenodd" viewBox="0 0 0.56 0.496"><path d="M.051.119h.335a.05.05 0 0 1 .051.046v.209A.051.051 0 0 1 .386.42H.051A.05.05 0 0 1 0 .369V.17A.05.05 0 0 1 .051.119M.386.15H.051q-.01 0-.014.006A.02.02 0 0 0 .031.17v.199q0 .01.006.014.005.006.014.006h.335Q.396.389.4.383.406.378.406.369V.17A.02.02 0 0 0 .4.156Q.395.15.386.15M.125.496A.015.015 0 0 1 .11.481q0-.013.013-.015h.191a.015.015 0 0 1 .013.015.015.015 0 0 1-.015.015z" class="fil0"/><path d="M.46.27v.031H.449.51A.05.05 0 0 0 .56.255V.046A.05.05 0 0 0 .51 0H.174a.05.05 0 0 0-.05.051v.047L.155.097v.092-.138c0-.011.009-.02.019-.02H.51a.02.02 0 0 1 .02.02V.25a.02.02 0 0 1-.02.02z" class="fil1"/></svg>