<?xml-stylesheet href="nine_dot_icon.css" type="text/css"?><svg xmlns="http://www.w3.org/2000/svg" xml:space="preserve" width="16" height="16" style="shape-rendering:geometricPrecision;text-rendering:geometricPrecision;image-rendering:optimizeQuality;fill-rule:evenodd;clip-rule:evenodd" viewBox="0 0 0.053 0.053"><circle cx=".004" cy=".049" r=".004" class="fil0"/><circle cx=".026" cy=".049" r=".004" class="fil0"/><path d="M.049.045q.003 0 .004.003v.001Q.052.053.049.053A.004.004 0 0 1 .045.049q0-.004.004-.004" class="fil0"/><circle cx=".004" cy=".026" r=".004" class="fil0"/><circle cx=".026" cy=".026" r=".004" class="fil0"/><path d="M.049.022q.003 0 .004.004v.001Q.052.03.049.03A.004.004 0 0 1 .045.026q0-.003.004-.004" class="fil0"/><circle cx=".004" cy=".004" r=".004" class="fil0"/><circle cx=".026" cy=".004" r=".004" class="fil0"/><path d="M.049 0q.003 0 .004.003v.001Q.052.008.049.008A.004.004 0 0 1 .045.004Q.045.001.049 0" class="fil0"/></svg>