<?xml-stylesheet href="rive_big_icon.css" type="text/css"?><svg xmlns="http://www.w3.org/2000/svg" xml:space="preserve" width="37" height="30" style="shape-rendering:geometricPrecision;text-rendering:geometricPrecision;image-rendering:optimizeQuality;fill-rule:evenodd;clip-rule:evenodd" viewBox="0 0 0.292 0.235"><path d="M.04 0h.212Q.269 0 .28.012a.04.04 0 0 1 .012.026v.159A.04.04 0 0 1 .28.223a.04.04 0 0 1-.028.012H.04A.04.04 0 0 1 .012.223.04.04 0 0 1 0 .195V.04Q0 .023.012.012A.04.04 0 0 1 .04 0m.212.018H.04a.02.02 0 0 0-.015.007.02.02 0 0 0-.007.015v.155A.02.02 0 0 0 .025.21.02.02 0 0 0 .04.217h.212A.02.02 0 0 0 .267.21Q.273.205.273.195V.04q0-.01-.006-.015A.02.02 0 0 0 .252.018" class="fil0"/><path d="M.081.058Q.074.057.072.05V.047Q.074.04.081.039h.082c.022 0 .036.012.042.027a.04.04 0 0 1 .004.018.04.04 0 0 1-.004.018Q.196.125.163.127H.129Q.121.127.12.117q0-.008.009-.009h.034q.02 0 .026-.013L.191.084.189.073Q.183.059.163.058z" class="fil1"/><path d="M.166.11h.001Q.174.106.179.113l.034.059Q.216.18.21.184.202.188.197.181L.166.126z" class="fil1"/></svg>