<?xml-stylesheet href="rive_icon.css" type="text/css"?><svg xmlns="http://www.w3.org/2000/svg" xml:space="preserve" width="16" height="13" style="shape-rendering:geometricPrecision;text-rendering:geometricPrecision;image-rendering:optimizeQuality;fill-rule:evenodd;clip-rule:evenodd" viewBox="0 0 0.058 0.047"><path d="M.008 0H.05l.006.002.002.005V.04L.056.044.05.047H.008L.002.044 0 .039V.008L.002.002zM.05.004H.008L.005.005.004.008v.031l.001.003.003.001H.05L.053.042.054.039V.008L.053.005z" class="fil0"/><path d="M.016.011.014.01V.009L.016.008h.016q.007 0 .009.005l.001.004L.041.02Q.039.025.032.025H.026L.024.023.026.022h.006q.005 0 .005-.003L.038.017.037.014q0-.002-.005-.003z" class="fil1"/><path d="M.033.022h.003l.006.012v.003L.039.036.033.025z" class="fil1"/></svg>