<?xml-stylesheet href="rtmp_mini_icon.css" type="text/css"?><svg xmlns="http://www.w3.org/2000/svg" xml:space="preserve" width="16" height="14" style="shape-rendering:geometricPrecision;text-rendering:geometricPrecision;image-rendering:optimizeQuality;fill-rule:evenodd;clip-rule:evenodd" viewBox="0 0 0.055 0.048"><path d="M.002.011h.05v.004h-.05zM.043.009.041.007.043.006h.004l.001.001-.001.002zM.035.009.033.007.035.006h.004L.04.007.039.009zM.027.009.025.007.027.006h.004l.001.001-.001.002z" class="fil0"/><path d="M.026.033.032.029.026.024zM.023.037V.02L.026.019l.01.008V.03l-.01.008H.025z" class="fil1"/><path d="M.009 0h.037q.005 0 .006.003l.003.005V.04L.052.045Q.051.048.046.048H.009Q.004.048.003.045L0 .039v-.03Q0 .004.003.003.004 0 .009 0m.037.003H.009L.005.005.003.009v.03l.002.004.004.001h.037L.05.043.052.039v-.03L.05.005z" class="fil0"/></svg>