<?xml-stylesheet href="rtmp_icon.css" type="text/css"?><svg xmlns="http://www.w3.org/2000/svg" xml:space="preserve" width="49" height="42" style="shape-rendering:geometricPrecision;text-rendering:geometricPrecision;image-rendering:optimizeQuality;fill-rule:evenodd;clip-rule:evenodd" viewBox="0 0 0.502 0.434"><path d="M.016.103h.461v.031H.016zM.393.083C.385.083.377.076.377.068q0-.012.012-.015h.042q.01.003.011.015a.015.015 0 0 1-.015.015zM.32.083Q.305.081.304.068q0-.012.012-.015h.042q.01.003.011.015Q.368.081.353.083zM.247.083Q.232.081.231.068q0-.012.012-.015h.041q.011.003.012.015Q.295.081.28.083z" class="fil0"/><path d="M.241.299.29.261.241.222zM.21.334V.188L.213.18Q.224.17.235.178l.089.07.003.003a.016.016 0 0 1-.002.022l-.089.07a.01.01 0 0 1-.01.004Q.213.346.21.334" class="fil1"/><path d="M.078 0h.345a.08.08 0 0 1 .079.075v.284a.1.1 0 0 1-.023.052.08.08 0 0 1-.056.023H.078A.08.08 0 0 1 0 .355V.078A.08.08 0 0 1 .078 0m.345.031H.078a.05.05 0 0 0-.033.014.05.05 0 0 0-.014.033v.277q.001.02.014.033t.033.014h.345A.05.05 0 0 0 .471.355V.078A.05.05 0 0 0 .457.045.05.05 0 0 0 .423.031" class="fil0"/></svg>