<?xml-stylesheet href="save_icon.css" type="text/css"?><svg xmlns="http://www.w3.org/2000/svg" xml:space="preserve" width="16" height="16" style="shape-rendering:geometricPrecision;text-rendering:geometricPrecision;image-rendering:optimizeQuality;fill-rule:evenodd;clip-rule:evenodd" viewBox="0 0 0.057 0.058"><path d="M.024.004.022.002.024 0h.019l.001.001.012.012h.001v.039L.055.056.049.058H.006L.002.056 0 .051V.006L.002.002.006 0h.006l.002.002v.017h.02V.004zm.018 0H.037v.017L.035.022H.012L.01.021V.004H.004v.049l.002.001h.043L.052.053.053.05V.015z" class="fil0"/><path d="M.018.01.02.008l.001.001v.005L.02.016.018.014zM.01.055V.038L.012.036h.032l.002.002v.017H.042V.04H.014v.015z" class="fil0"/></svg>