<?xml-stylesheet href="target_icon.css" type="text/css"?><svg xmlns="http://www.w3.org/2000/svg" xml:space="preserve" width="16" height="16" style="shape-rendering:geometricPrecision;text-rendering:geometricPrecision;image-rendering:optimizeQuality;fill-rule:evenodd;clip-rule:evenodd" viewBox="0 0 0.058 0.058"><path d="M.013 0h.032q.006 0 .009.004.004.003.004.008v.034q0 .005-.004.008Q.051.058.045.058H.013L.004.054Q0 .051 0 .045V.013Q0 .007.004.004.007 0 .013 0m.032.004H.013L.006.006.004.013v.032l.002.007.007.002h.032L.052.052.054.045V.013L.052.006z" class="fil0"/><path d="M.015.01Q.01.01.01.014L.009.023c0 .003.004.003.004 0V.018q0-.006.003-.005h.006Q.025.012.022.01zM.043.01q.005 0 .005.004v.009q-.001.005-.003 0V.018q0-.006-.003-.005H.036Q.031.012.036.01zM.015.048Q.01.048.01.044L.009.035c0-.003.004-.003.004 0V.04q0 .006.003.005h.006q.003.002 0 .003zM.043.048q.005 0 .005-.004V.035Q.047.03.045.035V.04q0 .006-.003.005H.036q-.005.002 0 .003z" class="fil0"/></svg>