<?xml-stylesheet href="text_big_icon.css" type="text/css"?><svg xmlns="http://www.w3.org/2000/svg" xml:space="preserve" width="22" height="26" style="shape-rendering:geometricPrecision;text-rendering:geometricPrecision;image-rendering:optimizeQuality;fill-rule:evenodd;clip-rule:evenodd" viewBox="0 0 0.099 0.119"><path d="M.01.022q0 .005-.005.005T0 .022V.005Q0 0 .005 0h.09q.004 0 .004.004v.019a.004.004 0 0 1-.004.004Q.09.026.09.022V.01H.01z" class="fil0"/><path d="M.055.007v.107q0 .005-.005.005T.045.114V.007z" class="fil0"/><path d="M.032.119Q.028.119.027.114q0-.003.004-.005h.037q.004.002.004.005 0 .005-.005.005z" class="fil0"/></svg>