<?xml-stylesheet href="video_big_icon.css" type="text/css"?><svg xmlns="http://www.w3.org/2000/svg" xml:space="preserve" width="37" height="30" style="shape-rendering:geometricPrecision;text-rendering:geometricPrecision;image-rendering:optimizeQuality;fill-rule:evenodd;clip-rule:evenodd" viewBox="0 0 0.312 0.251"><path d="M.043 0h.226q.019 0 .03.012A.05.05 0 0 1 .312.04v.171a.043.043 0 0 1-.043.04H.043A.05.05 0 0 1 .012.239.05.05 0 0 1 0 .209V.043Q0 .024.012.012A.05.05 0 0 1 .043 0m.226.019H.043a.02.02 0 0 0-.017.007.02.02 0 0 0-.007.017v.166q0 .01.007.016.006.007.017.007h.226A.03.03 0 0 0 .286.225.02.02 0 0 0 .292.209V.043A.02.02 0 0 0 .286.026.03.03 0 0 0 .269.019" class="fil0"/><path d="m.141.156.038-.03L.141.095zm-.019.02V.075L.124.069Q.129.062.138.068l.063.05.002.002a.01.01 0 0 1-.002.013l-.063.05-.006.003q-.01 0-.01-.01" class="fil0"/></svg>