<?xml-stylesheet href="video_icon.css" type="text/css"?><svg xmlns="http://www.w3.org/2000/svg" xml:space="preserve" width="16" height="13" style="shape-rendering:geometricPrecision;text-rendering:geometricPrecision;image-rendering:optimizeQuality;fill-rule:evenodd;clip-rule:evenodd" viewBox="0 0 0.052 0.042"><path d="M.007 0h.038L.05.002l.002.004v.03L.05.04.045.042H.007L.002.04 0 .035V.007L.002.002zm.038.003H.007L.004.004.003.007v.028l.001.002.003.001h.038L.047.037.048.035V.007L.047.004z" class="fil0"/><path d="M.023.026.03.021.023.016zM.02.029V.012L.021.011h.002l.01.008.001.001-.001.002-.01.008-.001.001z" class="fil0"/></svg>