<?xml-stylesheet href="text_centr_icon.css" type="text/css"?><svg xmlns="http://www.w3.org/2000/svg" xml:space="preserve" width="16" height="12" style="shape-rendering:geometricPrecision;text-rendering:geometricPrecision;image-rendering:optimizeQuality;fill-rule:evenodd;clip-rule:evenodd" viewBox="0 0 0.057 0.042"><path d="M.009 0h.039q.004 0 .006.003l.003.004v.027q0 .003-.003.005Q.052.042.048.042H.009Q.004.042.003.039L0 .033V.009Q0 .004.003.003.004 0 .009 0m.039.004H.009L.005.005.004.009v.024l.001.004.004.001h.039L.052.037.053.033V.009L.052.005z" class="fil0"/><path d="M.046.008.048.01v.001L.046.012H.011L.009.01.011.008zM.046.015l.002.002-.002.002H.011L.009.017.011.015zM.037.022l.002.001v.002L.037.026H.02L.018.024.02.022zM.037.029.039.03v.002L.037.033H.02L.018.031.02.029z" class="fil1"/></svg>