<?xml-stylesheet href="text_left_icon.css" type="text/css"?><svg xmlns="http://www.w3.org/2000/svg" xml:space="preserve" width="16" height="12" style="shape-rendering:geometricPrecision;text-rendering:geometricPrecision;image-rendering:optimizeQuality;fill-rule:evenodd;clip-rule:evenodd" viewBox="0 0 0.058 0.042"><path d="M.009 0h.04q.004 0 .006.003.003.002.003.006v.024L.055.04.049.042h-.04L.003.04 0 .034V.008Q0 .005.003.003.005 0 .009 0m.04.004h-.04L.005.005.004.009v.024l.001.004.004.002h.04L.053.037.054.033V.009L.053.005z" class="fil0"/><path d="M.047.009.049.01.047.012H.011L.009.011V.01L.011.009zM.047.016l.002.001-.002.002H.011L.009.018V.017L.011.016zM.029.023l.002.001-.002.002H.011L.009.025V.024L.011.023zM.029.03l.002.001-.002.002H.011L.009.032V.031L.011.03z" class="fil1"/></svg>