<?xml-stylesheet href="text_down_icon.css" type="text/css"?><svg xmlns="http://www.w3.org/2000/svg" xml:space="preserve" width="16" height="12" style="shape-rendering:geometricPrecision;text-rendering:geometricPrecision;image-rendering:optimizeQuality;fill-rule:evenodd;clip-rule:evenodd" viewBox="0 0 0.053 0.039"><path d="m.045 0 .006.002.002.006v.023L.051.037.045.039H.008L.002.037 0 .031V.008L.002.002.008 0zm0 .003H.008L.005.005.003.008v.023l.002.003.003.002h.037L.048.034.05.031V.008L.048.005z" class="fil0"/><path d="M.01.031.009.029.01.027h.033l.002.001v.001L.043.031zM.01.024.009.022.01.021h.033l.002.001v.001L.043.024z" class="fil1"/></svg>