<?xml-stylesheet href="text_up_icon.css" type="text/css"?><svg xmlns="http://www.w3.org/2000/svg" xml:space="preserve" width="16" height="12" style="shape-rendering:geometricPrecision;text-rendering:geometricPrecision;image-rendering:optimizeQuality;fill-rule:evenodd;clip-rule:evenodd" viewBox="0 0 0.055 0.04"><path d="M.047 0Q.05 0 .052.003q.003.002.003.006v.023L.052.038.046.04H.009L.003.038 0 .032V.009Q0 .004.003.003L.008 0zM.046.003H.009L.005.005.003.009v.023l.002.003.004.002h.037L.05.035.052.032V.009L.05.005z" class="fil0"/><path d="m.045.008.001.001V.01L.045.012H.011L.009.01.011.008zM.045.015l.001.001v.001L.045.018H.011L.009.017.011.015z" class="fil1"/></svg>