<?xml-stylesheet href="text_right_icon.css" type="text/css"?><svg xmlns="http://www.w3.org/2000/svg" xml:space="preserve" width="16" height="12" style="shape-rendering:geometricPrecision;text-rendering:geometricPrecision;image-rendering:optimizeQuality;fill-rule:evenodd;clip-rule:evenodd" viewBox="0 0 0.056 0.041"><path d="M.009 0h.038q.005 0 .006.003l.003.005v.025L.053.038Q.052.041.047.041H.009Q.004.041.003.038 0 .036 0 .032V.009Q0 .004.003.003.004 0 .009 0m.038.003H.009L.005.005.003.009v.023l.002.004.004.001h.038L.051.036.052.032V.009L.051.005z" class="fil0"/><path d="M.011.012.009.01.011.008h.034L.047.01.045.012zM.011.019.009.017.011.015h.034l.002.001v.001L.045.019zM.028.025.026.024.028.022h.017l.002.001v.001L.045.025zM.028.032.026.03.028.029h.017L.047.03v.001L.045.032z" class="fil1"/></svg>