<?xml version="1.0" encoding="UTF-8"?>
<!DOCTYPE svg PUBLIC "-//W3C//DTD SVG 1.1//EN" "http://www.w3.org/Graphics/SVG/1.1/DTD/svg11.dtd">
<!-- Creator: CorelDRAW -->
<svg xmlns="http://www.w3.org/2000/svg" xml:space="preserve" width="115px" height="115px" version="1.1" style="shape-rendering:geometricPrecision; text-rendering:geometricPrecision; image-rendering:optimizeQuality; fill-rule:evenodd; clip-rule:evenodd"
viewBox="0 0 2.548 2.548"
 xmlns:xlink="http://www.w3.org/1999/xlink"
 xmlns:xodm="http://www.corel.com/coreldraw/odm/2003">
 <defs>
  <style type="text/css">
   <![CDATA[
    .str0 {stroke:#919191;stroke-width:0.006;stroke-miterlimit:22.9256}
    .fil0 {fill:none}
    .fil2 {fill:white;fill-rule:nonzero}
    .fil1 {fill:#1A1A1A;fill-opacity:0.760784}
   ]]>
  </style>
 </defs>
 <g id="Слой_x0020_1">
  <metadata id="CorelCorpID_0Corel-Layer"/>
  <polygon class="fil0 str0" points="0.003,2.545 2.545,2.545 2.545,0.003 0.003,0.003 "/>
  <polygon class="fil1" points="0.898,1.305 0.784,1.262 2.067,2.545 2.545,2.545 2.545,1.75 1.8,1.005 1.799,1.388 1.77,1.414 1.673,1.411 1.596,1.538 1.621,1.591 1.592,1.641 1.513,1.637 1.488,1.58 1.405,1.578 1.341,1.561 1.289,1.479 1.274,1.065 1.128,0.926 1.167,1.033 1.166,1.189 1.17,1.297 1.061,1.282 0.998,1.305 "/>
  <g id="_86615486896">
   <path class="fil2" d="M1.797 1.199l0.008 0c0.008,0 0.014,0.006 0.016,0.013l0 0.17c-0.001,0.002 -0.002,0.005 -0.004,0.007l-0.027 0.034c-0.003,0.004 -0.008,0.007 -0.013,0.007l-0.1 0c-0.003,0 -0.005,-0.001 -0.007,-0.002 -0.008,-0.004 -0.015,-0.01 -0.019,-0.018 -0.003,-0.007 -0.005,-0.015 -0.005,-0.024l0 -0.153c0,-0.003 0.001,-0.007 0.003,-0.01l0.013 -0.017c0.003,-0.004 0.008,-0.007 0.014,-0.007l0.121 0zm-0.008 0.032l-0.105 0 -0.006 0.008 0 0.147c0,0.004 0.001,0.007 0.002,0.01 0,0 0.001,0.001 0.001,0.002l0.088 0 0.02 -0.025 0 -0.142z"/>
   <path class="fil2" d="M1.297 1.199l0.129 0c0.006,0 0.011,0.003 0.014,0.007l0.013 0.017c0.002,0.003 0.003,0.007 0.003,0.01l0.001 0.151 -0.001 0.003c-0.001,0.01 -0.003,0.018 -0.006,0.024l-0.001 0.001c-0.004,0.007 -0.009,0.012 -0.016,0.016 -0.002,0.001 -0.005,0.002 -0.008,0.002l-0.1 0c-0.005,0 -0.01,-0.003 -0.013,-0.007l-0.022 -0.027 0 -0.195c0.002,-0.001 0.005,-0.002 0.007,-0.002zm0.122 0.032l-0.105 0 0 0.142 0.019 0.025 0.087 0 0.001 -0.002c0.002,-0.003 0.003,-0.007 0.003,-0.012l0 -0.145 -0.005 -0.008z"/>
   <path class="fil2" d="M1.472 1.564c0.009,0 0.016,0.007 0.016,0.016 0,0.009 -0.007,0.016 -0.016,0.016l-0.069 0c-0.001,0 -0.002,0 -0.003,0 -0.034,-0.005 -0.062,-0.016 -0.084,-0.035 -0.022,-0.019 -0.036,-0.045 -0.042,-0.079l0 -0.003 0 -0.41c0,-0.001 0,-0.002 0,-0.004 0.006,-0.039 0.039,-0.105 0.1,-0.152 0.043,-0.033 0.1,-0.057 0.171,-0.057l0.007 -0.001c0.071,-0.002 0.137,0.027 0.186,0.071 0.044,0.038 0.074,0.088 0.084,0.136l0 0.162c-0.003,0.005 -0.008,0.007 -0.014,0.007 -0.009,0 -0.016,-0.007 -0.016,-0.016 0,-0.04 0.003,-0.093 0,-0.131 -0.003,-0.046 -0.032,-0.096 -0.075,-0.134 -0.044,-0.039 -0.102,-0.065 -0.164,-0.063l-0.007 0.001c-0.064,0 -0.114,0.021 -0.152,0.05 -0.054,0.042 -0.083,0.099 -0.088,0.132l0 0.408c0.005,0.025 0.015,0.045 0.031,0.059 0.017,0.014 0.039,0.023 0.067,0.027l0.068 0z"/>
   <path class="fil2" d="M1.552 1.5c0.023,0 0.043,0.009 0.058,0.024 0.015,0.015 0.024,0.035 0.024,0.058 0,0.022 -0.009,0.043 -0.024,0.058 -0.015,0.014 -0.035,0.024 -0.058,0.024 -0.022,0 -0.043,-0.01 -0.057,-0.024 -0.012,-0.012 -0.021,-0.028 -0.023,-0.045l0 -0.026c0.002,-0.017 0.011,-0.033 0.023,-0.045 0.014,-0.015 0.035,-0.024 0.057,-0.024zm0.035 0.047c-0.009,-0.009 -0.021,-0.015 -0.035,-0.015 -0.013,0 -0.026,0.006 -0.035,0.015 -0.009,0.009 -0.014,0.021 -0.014,0.035 0,0.014 0.005,0.026 0.014,0.035 0.009,0.009 0.022,0.014 0.035,0.014 0.014,0 0.026,-0.005 0.035,-0.014 0.009,-0.009 0.015,-0.021 0.015,-0.035 0,-0.014 -0.006,-0.026 -0.015,-0.035z"/>
   <path class="fil2" d="M0.951 0.879c-0.057,0 -0.109,0.023 -0.147,0.06 -0.037,0.038 -0.06,0.089 -0.06,0.147 0,0.057 0.023,0.108 0.06,0.146 0.038,0.037 0.09,0.06 0.147,0.06 0.019,0 0.037,-0.002 0.055,-0.007 0.018,-0.005 0.034,-0.012 0.05,-0.021 0.003,-0.003 0.007,-0.006 0.014,-0.005 0.013,0.002 0.032,0.007 0.051,0.011 0.015,0.003 0.029,0.006 0.04,0.008 -0.003,-0.01 -0.007,-0.024 -0.012,-0.037 -0.007,-0.021 -0.014,-0.042 -0.016,-0.053 0,-0.006 0.002,-0.009 0.004,-0.012 0.006,-0.014 0.011,-0.028 0.015,-0.043 0.003,-0.015 0.005,-0.031 0.005,-0.047 0,-0.058 -0.023,-0.109 -0.06,-0.147 -0.038,-0.037 -0.089,-0.06 -0.146,-0.06zm0.245 0.407l0 0.012c-0.001,0.003 -0.002,0.006 -0.004,0.008 -0.005,0.005 -0.01,0.008 -0.018,0.007 -0.012,-0.001 -0.036,-0.007 -0.06,-0.012 -0.015,-0.003 -0.031,-0.007 -0.043,-0.009 -0.018,0.01 -0.037,0.018 -0.057,0.024 -0.02,0.005 -0.041,0.008 -0.063,0.008 -0.066,0 -0.126,-0.026 -0.169,-0.07 -0.043,-0.043 -0.07,-0.103 -0.07,-0.168 0,-0.066 0.027,-0.126 0.07,-0.169 0.043,-0.044 0.103,-0.07 0.169,-0.07 0.066,0 0.125,0.026 0.168,0.07 0.044,0.043 0.07,0.103 0.07,0.169 0,0.018 -0.002,0.036 -0.006,0.054 -0.004,0.017 -0.01,0.033 -0.017,0.049 0.002,0.009 0.008,0.025 0.013,0.042 0.007,0.02 0.015,0.041 0.017,0.055z"/>
   <path class="fil2" d="M0.985 1.162l-0.034 0 -0.013 -0.035 -0.061 0 -0.013 0.035 -0.032 0 0.059 -0.153 0.033 0 0.061 0.153zm-0.057 -0.061l-0.021 -0.056 -0.021 0.056 0.042 0zm0.073 -0.065l0 -0.027 0.029 0 0 0.027 -0.029 0zm0 0.126l0 -0.111 0.029 0 0 0.111 -0.029 0z"/>
  </g>
 </g>
</svg>
