<?xml version="1.0" encoding="UTF-8"?>
<!DOCTYPE svg PUBLIC "-//W3C//DTD SVG 1.1//EN" "http://www.w3.org/Graphics/SVG/1.1/DTD/svg11.dtd">
<!-- Creator: CorelDRAW -->
<svg xmlns="http://www.w3.org/2000/svg" xml:space="preserve" width="115px" height="115px" version="1.1" style="shape-rendering:geometricPrecision; text-rendering:geometricPrecision; image-rendering:optimizeQuality; fill-rule:evenodd; clip-rule:evenodd"
viewBox="0 0 2.41 2.41"
 xmlns:xlink="http://www.w3.org/1999/xlink"
 xmlns:xodm="http://www.corel.com/coreldraw/odm/2003">
 <defs>
  <style type="text/css">
   <![CDATA[
    .str0 {stroke:#919191;stroke-width:0.006;stroke-miterlimit:22.9256}
    .fil0 {fill:none}
    .fil2 {fill:white;fill-rule:nonzero}
    .fil1 {fill:#1A1A1A;fill-opacity:0.760784}
   ]]>
  </style>
 </defs>
 <g id="Слой_x0020_1">
  <metadata id="CorelCorpID_0Corel-Layer"/>
  <polygon class="fil0 str0" points="0.003,2.407 2.407,2.407 2.407,0.003 0.003,0.003 "/>
  <polygon class="fil1" points="0.992,1.446 0.911,1.395 0.958,1.581 1.785,2.407 2.407,2.407 2.407,1.694 1.527,0.819 1.371,0.794 1.216,0.778 0.967,0.823 1.088,0.963 1.295,0.965 1.364,1.004 1.4,1.141 1.57,1.033 1.596,1.048 1.584,1.38 1.407,1.278 1.355,1.419 1.237,1.45 "/>
  <g id="_86558371824">
   <path class="fil2" d="M1.017 0.949l0.264 0c0.037,0 0.07,0.015 0.095,0.039 0.023,0.023 0.038,0.055 0.039,0.09l0 0.256c-0.001,0.035 -0.016,0.066 -0.039,0.09 -0.025,0.024 -0.058,0.039 -0.095,0.039l-0.264 0c-0.037,0 -0.071,-0.015 -0.095,-0.039 -0.024,-0.025 -0.039,-0.058 -0.039,-0.095l0 -0.246c0,-0.037 0.015,-0.071 0.039,-0.095 0.024,-0.024 0.058,-0.039 0.095,-0.039zm0.264 0.034l-0.264 0c-0.027,0 -0.052,0.012 -0.07,0.03 -0.018,0.018 -0.029,0.042 -0.029,0.07l0 0.246c0,0.027 0.011,0.052 0.029,0.07 0.018,0.018 0.043,0.029 0.07,0.029l0.264 0c0.027,0 0.052,-0.011 0.07,-0.029 0.018,-0.018 0.029,-0.043 0.029,-0.07l0 -0.246c0,-0.028 -0.011,-0.052 -0.029,-0.07 -0.018,-0.018 -0.043,-0.03 -0.07,-0.03z"/>
   <path class="fil2" d="M1.561 1.076l-0.146 0.073 0 0.109 0.146 0.077 0 -0.259zm-0.166 0.211l0 -0.167 0.175 -0.087c0.002,-0.001 0.005,-0.002 0.009,-0.002 0.009,0 0.017,0.008 0.017,0.017l0 0.315c0,0.003 -0.001,0.006 -0.002,0.008 -0.004,0.009 -0.015,0.012 -0.024,0.008l-0.175 -0.092z"/>
   <path class="fil2" d="M0.975 0.844c-0.009,0.003 -0.019,-0.002 -0.021,-0.011 -0.003,-0.009 0.002,-0.019 0.011,-0.022 0.087,-0.028 0.175,-0.043 0.262,-0.045l0.038 0c0.084,0.002 0.168,0.016 0.252,0.044 0.009,0.003 0.014,0.013 0.011,0.022 -0.003,0.009 -0.013,0.014 -0.022,0.011 -0.089,-0.029 -0.177,-0.043 -0.265,-0.043 -0.089,0.001 -0.177,0.016 -0.266,0.044z"/>
   <path class="fil2" d="M0.965 1.589c-0.009,-0.003 -0.014,-0.013 -0.011,-0.022 0.002,-0.009 0.012,-0.014 0.021,-0.012 0.089,0.029 0.177,0.044 0.266,0.044 0.088,0.001 0.176,-0.013 0.265,-0.042 0.009,-0.003 0.019,0.002 0.022,0.011 0.003,0.009 -0.002,0.019 -0.011,0.022 -0.083,0.027 -0.165,0.042 -0.248,0.044l-0.046 0c-0.086,-0.003 -0.172,-0.018 -0.258,-0.045z"/>
  </g>
 </g>
</svg>
