<?xml version="1.0" encoding="UTF-8"?>
<!DOCTYPE svg PUBLIC "-//W3C//DTD SVG 1.1//EN" "http://www.w3.org/Graphics/SVG/1.1/DTD/svg11.dtd">
<!-- Creator: CorelDRAW -->
<svg xmlns="http://www.w3.org/2000/svg" xml:space="preserve" width="115px" height="115px" version="1.1" style="shape-rendering:geometricPrecision; text-rendering:geometricPrecision; image-rendering:optimizeQuality; fill-rule:evenodd; clip-rule:evenodd"
viewBox="0 0 2.878 2.877"
 xmlns:xlink="http://www.w3.org/1999/xlink"
 xmlns:xodm="http://www.corel.com/coreldraw/odm/2003">
 <defs>
  <style type="text/css">
   <![CDATA[
    .str0 {stroke:#919191;stroke-width:0.007;stroke-miterlimit:22.9256}
    .fil0 {fill:none}
    .fil2 {fill:white;fill-rule:nonzero}
    .fil3 {fill:white;fill-rule:nonzero}
    .fil1 {fill:#1A1A1A;fill-opacity:0.760784}
   ]]>
  </style>
 </defs>
 <g id="Слой_x0020_1">
  <metadata id="CorelCorpID_0Corel-Layer"/>
  <polygon class="fil0 str0" points="0.004,2.874 2.874,2.874 2.874,0.004 0.004,0.004 "/>
  <polygon class="fil1" points="0.941,1.938 1.877,2.874 2.874,2.874 2.874,2.014 2.033,1.174 2.008,1.148 1.728,1.455 1.832,1.458 1.883,1.481 1.909,1.529 1.907,1.878 1.886,1.922 1.839,1.939 "/>
  <g id="_86509341440">
   <path class="fil2" d="M1.012 0.95l0.339 0c0.025,0 0.047,0.01 0.064,0.027 0.011,0.011 0.02,0.026 0.024,0.043l0 0.868c-0.004,0.017 -0.013,0.031 -0.024,0.043 -0.017,0.016 -0.039,0.026 -0.064,0.026l-0.339 0c-0.024,0 -0.047,-0.01 -0.063,-0.026 -0.017,-0.016 -0.027,-0.039 -0.027,-0.064l0 -0.827c0,-0.024 0.01,-0.047 0.027,-0.063 0.016,-0.017 0.039,-0.027 0.063,-0.027zm0.339 0.044l-0.339 0c-0.012,0 -0.024,0.006 -0.032,0.014 -0.008,0.008 -0.014,0.02 -0.014,0.032l0 0.827c0,0.013 0.006,0.024 0.014,0.033 0.008,0.008 0.02,0.013 0.032,0.013l0.339 0c0.013,0 0.024,-0.005 0.033,-0.013 0.008,-0.009 0.013,-0.02 0.013,-0.033l0 -0.827c0,-0.012 -0.005,-0.024 -0.013,-0.032 -0.009,-0.008 -0.02,-0.014 -0.033,-0.014z"/>
   <path class="fil2" d="M0.922 1.867l0 -0.338c0,-0.025 0.01,-0.048 0.027,-0.064 0.015,-0.015 0.035,-0.025 0.057,-0.026l0.84 0c0.022,0.001 0.042,0.011 0.057,0.026 0.016,0.016 0.027,0.039 0.027,0.064l0 0.338c0,0.025 -0.011,0.048 -0.027,0.064 -0.016,0.016 -0.039,0.026 -0.064,0.026l-0.827 0c-0.024,0 -0.047,-0.01 -0.063,-0.026 -0.017,-0.016 -0.027,-0.039 -0.027,-0.064zm0.044 -0.338l0 0.338c0,0.013 0.006,0.024 0.014,0.033 0.008,0.008 0.02,0.013 0.032,0.013l0.827 0c0.013,0 0.025,-0.005 0.033,-0.013 0.008,-0.009 0.013,-0.02 0.013,-0.033l0 -0.338c0,-0.013 -0.005,-0.024 -0.013,-0.033 -0.008,-0.008 -0.02,-0.013 -0.033,-0.013l-0.827 0c-0.012,0 -0.024,0.005 -0.032,0.013 -0.008,0.009 -0.014,0.02 -0.014,0.033z"/>
   <path class="fil2" d="M1.43 1.1l0.215 -0.215c0.016,-0.016 0.037,-0.024 0.059,-0.024 0.021,0 0.042,0.008 0.058,0.024l0.224 0.224c0.017,0.016 0.025,0.038 0.025,0.059 0,0.021 -0.008,0.043 -0.025,0.059l-0.215 0.215c-0.008,0.008 -0.018,0.015 -0.028,0.019l-0.061 0c-0.01,-0.004 -0.02,-0.011 -0.029,-0.019l-0.223 -0.224c-0.004,-0.004 -0.008,-0.008 -0.011,-0.013l0 -0.092c0.003,-0.004 0.007,-0.009 0.011,-0.013zm0.246 -0.184l-0.215 0.216c-0.008,0.007 -0.012,0.017 -0.012,0.027 0,0.01 0.004,0.02 0.012,0.028l0.224 0.224c0.007,0.007 0.017,0.011 0.027,0.011 0.01,0 0.02,-0.004 0.028,-0.011l0.215 -0.215c0.008,-0.008 0.011,-0.018 0.011,-0.028 0,-0.01 -0.003,-0.02 -0.011,-0.028l-0.224 -0.224c-0.007,-0.007 -0.017,-0.011 -0.027,-0.011 -0.01,0 -0.02,0.004 -0.028,0.011z"/>
   <path class="fil3" d="M1.834 1.185l-0.032 0.033 -0.047 -0.021 -0.059 0.059 0.021 0.046 -0.031 0.032 -0.091 -0.206 0.032 -0.031 0.207 0.088zm-0.113 -0.004l-0.076 -0.034 0.035 0.075 0.041 -0.041zm0.007 -0.133l-0.026 -0.026 0.028 -0.029 0.026 0.027 -0.028 0.028zm0.122 0.122l-0.107 -0.108 0.028 -0.028 0.107 0.107 -0.028 0.029z"/>
  </g>
 </g>
</svg>
