<?xml version="1.0" encoding="UTF-8"?>
<!DOCTYPE svg PUBLIC "-//W3C//DTD SVG 1.1//EN" "http://www.w3.org/Graphics/SVG/1.1/DTD/svg11.dtd">
<!-- Creator: CorelDRAW -->
<svg xmlns="http://www.w3.org/2000/svg" xml:space="preserve" width="290px" height="66px" version="1.1" style="shape-rendering:geometricPrecision; text-rendering:geometricPrecision; image-rendering:optimizeQuality; fill-rule:evenodd; clip-rule:evenodd"
viewBox="0 0 19.569 4.412"
 xmlns:xlink="http://www.w3.org/1999/xlink"
 xmlns:xodm="http://www.corel.com/coreldraw/odm/2003">
 <defs>
  <style type="text/css">
   <![CDATA[
    .str0 {stroke:white;stroke-width:0.034;stroke-miterlimit:22.9256}
    .fil1 {fill:none}
    .fil2 {fill:red}
    .fil0 {fill:white;fill-rule:nonzero}
   ]]>
  </style>
 </defs>
 <g id="Слой_x0020_1">
  <metadata id="CorelCorpID_0Corel-Layer"/>
  <g id="_86617849216">
   <path class="fil0" d="M2.982 4.412c0.132,-0.072 0.251,-0.163 0.353,-0.272 0.28,-0.295 0.441,-0.718 0.441,-1.223l0 -0.911c0,-0.506 -0.161,-0.928 -0.441,-1.224 -0.279,-0.295 -0.678,-0.465 -1.155,-0.465l-0.528 0c-0.479,0 -0.88,0.172 -1.16,0.477 -0.272,0.298 -0.43,0.723 -0.436,1.242l1.088 0c0.008,-0.251 0.06,-0.43 0.165,-0.55 0.11,-0.124 0.277,-0.181 0.511,-0.181l0.192 0c0.225,0 0.388,0.052 0.499,0.167 0.109,0.114 0.164,0.288 0.173,0.533l0.001 0.029 -1.179 0 0 0.843 1.178 0 0 0.029c-0.006,0.248 -0.063,0.425 -0.173,0.541 -0.112,0.117 -0.277,0.171 -0.499,0.171l-0.192 0c-0.234,0 -0.401,-0.057 -0.511,-0.183 -0.105,-0.12 -0.157,-0.301 -0.165,-0.554l-1.088 0c0.006,0.522 0.164,0.948 0.436,1.246 0.105,0.115 0.226,0.21 0.362,0.285l-0.11 0c-0.108,-0.069 -0.206,-0.152 -0.293,-0.247 -0.287,-0.314 -0.451,-0.763 -0.451,-1.312l0 -0.028 1.198 0 0.001 0.027c0.005,0.254 0.053,0.433 0.152,0.546 0.099,0.113 0.252,0.163 0.469,0.163l0.192 0c0.206,0 0.358,-0.048 0.458,-0.153 0.097,-0.101 0.148,-0.257 0.157,-0.475l-1.177 0 0 -0.955 1.176 0c-0.011,-0.215 -0.061,-0.368 -0.156,-0.467 -0.098,-0.103 -0.249,-0.15 -0.458,-0.15l-0.192 0c-0.217,0 -0.37,0.051 -0.469,0.163 -0.099,0.112 -0.147,0.289 -0.152,0.541l-0.001 0.027 -1.198 0 0 -0.028c0,-0.546 0.165,-0.994 0.451,-1.307 0.291,-0.318 0.706,-0.496 1.201,-0.496l0.528 0c0.493,0 0.906,0.176 1.196,0.483 0.29,0.306 0.456,0.742 0.456,1.262l0 0.911c0,0.52 -0.166,0.956 -0.456,1.262 -0.084,0.089 -0.179,0.167 -0.284,0.233l-0.11 0zm12.404 0l-0.056 0 0 -0.938 1.095 0c0.398,0 0.729,-0.14 0.96,-0.386 0.231,-0.246 0.364,-0.599 0.364,-1.024l0 -0.307c0,-0.41 -0.132,-0.748 -0.363,-0.983 -0.232,-0.236 -0.565,-0.37 -0.967,-0.37l-2.187 0 0 4.008 -0.056 0 0 -4.064 2.243 0c0.417,0 0.764,0.14 1.006,0.386 0.242,0.246 0.38,0.598 0.38,1.023l0 0.307c0,0.439 -0.138,0.806 -0.379,1.063 -0.242,0.257 -0.587,0.404 -1.001,0.404l-1.039 0 0 0.881zm-1.757 0l-0.057 0 0 -4.008 -1.111 0 -1.191 1.83 -0.395 0.764 0.064 -1.282 0 -1.312 -1.098 0 0 4.008 -0.056 0 0 -4.064 1.21 0c0,0.84 -0.009,1.561 -0.051,2.395 0.447,-0.864 0.944,-1.564 1.487,-2.395l1.198 0 0 4.064zm-1.155 0l-0.056 0c0.002,-0.777 0.014,-1.446 0.057,-2.233 -0.423,0.803 -0.888,1.473 -1.387,2.233l-0.067 0 1.123 -1.724 0.401 -0.762 -0.071 1.292 0 1.194zm-5.098 0l-0.056 0 0 -0.097 0.277 0c0.508,0 0.953,-0.167 1.27,-0.447 0.316,-0.278 0.506,-0.668 0.506,-1.114l0 -0.568c0,-0.446 -0.19,-0.836 -0.506,-1.114 -0.317,-0.28 -0.762,-0.447 -1.27,-0.447l-0.277 0 0 -0.569 -1.069 0 0 0.569 -0.283 0c-0.507,0 -0.948,0.167 -1.263,0.446 -0.314,0.278 -0.502,0.668 -0.502,1.115l0 0.568c0,0.447 0.188,0.837 0.502,1.115 0.315,0.279 0.756,0.446 1.263,0.446l0.283 0 0 0.097 -0.056 0 0 -0.04 -0.227 0c-0.521,0 -0.976,-0.173 -1.3,-0.461 -0.326,-0.289 -0.521,-0.693 -0.521,-1.157l0 -0.568c0,-0.464 0.195,-0.868 0.521,-1.157 0.324,-0.288 0.779,-0.461 1.3,-0.461l0.227 0 0 -0.568 1.181 0 0 0.568 0.221 0c0.522,0 0.98,0.173 1.307,0.462 0.328,0.289 0.525,0.693 0.525,1.156l0 0.568c0,0.463 -0.197,0.867 -0.525,1.156 -0.327,0.289 -0.785,0.462 -1.307,0.462l-0.221 0 0 0.04zm0.175 -1.102l-0.243 0 0 -1.68 0.243 0c0.245,0 0.427,0.052 0.548,0.162 0.122,0.112 0.182,0.281 0.182,0.516l0 0.324c0,0.235 -0.06,0.404 -0.182,0.516 -0.121,0.11 -0.303,0.162 -0.548,0.162zm-0.187 -0.056l0.187 0c0.231,0 0.4,-0.047 0.51,-0.148 0.11,-0.1 0.164,-0.256 0.164,-0.474l0 -0.324c0,-0.218 -0.054,-0.374 -0.164,-0.474 -0.11,-0.101 -0.279,-0.148 -0.51,-0.148l-0.187 0 0 1.568zm-2.068 -0.622l0 -0.324c0,-0.235 0.058,-0.404 0.179,-0.516 0.121,-0.11 0.303,-0.162 0.551,-0.162l0.236 0 0 1.68 -0.236 0c-0.248,0 -0.43,-0.052 -0.551,-0.162 -0.121,-0.112 -0.179,-0.281 -0.179,-0.516zm0.056 -0.324l0 0.324c0,0.218 0.052,0.374 0.161,0.474 0.11,0.101 0.279,0.148 0.513,0.148l0.18 0 0 -1.568 -0.18 0c-0.234,0 -0.403,0.047 -0.513,0.148 -0.109,0.1 -0.161,0.256 -0.161,0.474zm9.989 -0.922l0.823 0c0.159,0 0.282,0.044 0.366,0.129 0.083,0.084 0.126,0.208 0.126,0.369l0 0.087c0,0.159 -0.043,0.283 -0.126,0.368 -0.083,0.085 -0.204,0.13 -0.36,0.13l-0.858 0 0 -1.083 0.029 0zm0.823 0.056l-0.795 0 0 0.971 0.801 0c0.14,0 0.248,-0.039 0.32,-0.113 0.072,-0.074 0.11,-0.185 0.11,-0.329l0 -0.087c0,-0.146 -0.038,-0.256 -0.11,-0.33 -0.073,-0.074 -0.182,-0.112 -0.326,-0.112z"/>
   <path class="fil1 str0" d="M18.983 0.481c-0.314,0 -0.569,0.254 -0.569,0.568 0,0.314 0.255,0.569 0.569,0.569 0.314,0 0.569,-0.255 0.569,-0.569 0,-0.314 -0.255,-0.568 -0.569,-0.568z"/>
   <path class="fil2 str0" d="M18.983 0.677c-0.206,0 -0.372,0.167 -0.372,0.372 0,0.206 0.166,0.372 0.372,0.372 0.206,0 0.372,-0.166 0.372,-0.372 0,-0.205 -0.166,-0.372 -0.372,-0.372z"/>
  </g>
 </g>
</svg>
