<?xml version="1.0" encoding="UTF-8"?>
<!DOCTYPE svg PUBLIC "-//W3C//DTD SVG 1.1//EN" "http://www.w3.org/Graphics/SVG/1.1/DTD/svg11.dtd">
<!-- Creator: CorelDRAW -->
<svg xmlns="http://www.w3.org/2000/svg" xml:space="preserve" width="50px" height="50px" version="1.1" style="shape-rendering:geometricPrecision; text-rendering:geometricPrecision; image-rendering:optimizeQuality; fill-rule:evenodd; clip-rule:evenodd"
viewBox="0 0 0.577 0.577"
 xmlns:xlink="http://www.w3.org/1999/xlink"
 xmlns:xodm="http://www.corel.com/coreldraw/odm/2003">
 <defs>
  <style type="text/css">
   <![CDATA[
    .str0 {stroke:white;stroke-width:0.006;stroke-miterlimit:22.9256}
    .str1 {stroke:white;stroke-width:0.003;stroke-miterlimit:22.9256}
    .fil2 {fill:none}
    .fil1 {fill:none;fill-rule:nonzero}
    .fil3 {fill:red}
    .fil4 {fill:#CCCCCC;fill-rule:nonzero}
    .fil0 {fill:black;fill-opacity:0.250980}
   ]]>
  </style>
 </defs>
 <g id="Слой_x0020_1">
  <metadata id="CorelCorpID_0Corel-Layer"/>
  <path class="fil0" d="M0.232 0.396c-0.025,-0.002 -0.058,-0.019 -0.074,-0.035l0.214 0.215 0.204 0 0 -0.227c-0.069,-0.068 -0.131,-0.131 -0.199,-0.199 0.014,0.017 0.028,0.047 0.029,0.074 0,0.02 0.001,0.044 0.001,0.064 -0.004,0.061 -0.06,0.105 -0.102,0.108 -0.018,0 -0.055,0 -0.073,0z"/>
  <path class="fil0" d="M0.575 0.252c-0.042,-0.043 -0.085,-0.085 -0.127,-0.128 0.027,0.019 0.06,-0.01 0.045,-0.039l0.082 0.082 0 0.085z"/>
  <path class="fil1 str0" d="M0.253 0.395l0.033 0c0.075,0 0.118,-0.045 0.118,-0.121l0 -0.036c0,-0.077 -0.043,-0.122 -0.118,-0.122l-0.033 0c-0.073,0 -0.116,0.043 -0.119,0.114l0.091 0c0,-0.025 0.014,-0.037 0.036,-0.037l0.016 0c0.021,0 0.034,0.01 0.036,0.032l-0.067 0 0 0.061 0.067 0c-0.001,0.022 -0.015,0.033 -0.036,0.033l-0.016 0c-0.022,0 -0.036,-0.013 -0.036,-0.038l-0.091 0c0.003,0.072 0.046,0.114 0.119,0.114z"/>
  <path class="fil2 str0" d="M0.466 0.071c-0.016,0 -0.028,0.013 -0.028,0.029 0,0.016 0.012,0.028 0.028,0.028 0.016,0 0.029,-0.012 0.029,-0.028 0,-0.016 -0.013,-0.029 -0.029,-0.029z"/>
  <path class="fil3 str0" d="M0.466 0.081c-0.01,0 -0.019,0.008 -0.019,0.019 0,0.01 0.009,0.018 0.019,0.018 0.011,0 0.019,-0.008 0.019,-0.018 0,-0.011 -0.008,-0.019 -0.019,-0.019z"/>
  <path class="fil4" d="M0.111 0.519l0.004 0c0.01,0 0.017,-0.007 0.017,-0.016l-0.003 0c-0.001,0.007 -0.006,0.012 -0.014,0.012l-0.004 0c-0.008,0 -0.014,-0.006 -0.014,-0.014l0 -0.014c0,-0.008 0.006,-0.014 0.014,-0.014l0.004 0c0.008,0 0.013,0.005 0.014,0.013l0.003 0c0,-0.01 -0.007,-0.016 -0.017,-0.016l-0.004 0c-0.01,0 -0.018,0.007 -0.018,0.017l0 0.014c0,0.01 0.008,0.018 0.018,0.018zm0.048 -0.001l0 -0.044 0.018 0 0 -0.003 -0.041 0 0 0.003 0.019 0 0 0.044 0.004 0zm0.041 0.001l0.005 0c0.01,0 0.017,-0.008 0.017,-0.018l0 -0.014c0,-0.01 -0.007,-0.017 -0.017,-0.017l-0.005 0c-0.01,0 -0.017,0.007 -0.017,0.017l0 0.049 0.004 0 0 -0.022 0 -0.003c0.002,0.005 0.007,0.008 0.013,0.008zm0.005 -0.004l-0.005 0c-0.008,0 -0.013,-0.006 -0.013,-0.014l0 -0.014c0,-0.008 0.005,-0.014 0.013,-0.014l0.005 0c0.008,0 0.013,0.006 0.013,0.014l0 0.014c0,0.008 -0.005,0.014 -0.013,0.014zm0.028 0.003l0.005 0 0.027 -0.036 0.004 -0.006 0 0.007 0 0.035 0.004 0 0 -0.047 -0.005 0 -0.027 0.036 -0.004 0.005 0 -0.007 0 -0.034 -0.004 0 0 0.047zm0.053 0l0.004 0 0 -0.032 -0.001 -0.009 0.019 0.026 0.003 0 0.019 -0.026 0 0.009 0 0.032 0.004 0 0 -0.047 -0.004 0 -0.017 0.023 -0.003 0.005 -0.004 -0.005 -0.016 -0.023 -0.004 0 0 0.047zm0.061 0l0.004 0 0.027 -0.036 0.004 -0.006 0 0.007 0 0.035 0.004 0 0 -0.047 -0.004 0 -0.027 0.036 -0.004 0.005 0 -0.007 0 -0.034 -0.004 0 0 0.047zm0.086 0l0.004 0 0 -0.047 -0.004 0 0 0.021 -0.03 0 0 -0.021 -0.004 0 0 0.047 0.004 0 0 -0.023 0.03 0 0 0.023zm0.017 0l0.004 0 0 -0.044 0.027 0 0 -0.003 -0.031 0 0 0.047z"/>
  <polygon class="fil2 str1" points="0.002,0.576 0.576,0.576 0.576,0.002 0.002,0.002 "/>
 </g>
</svg>
