<?xml version="1.0" encoding="UTF-8"?>
<!DOCTYPE svg PUBLIC "-//W3C//DTD SVG 1.1//EN" "http://www.w3.org/Graphics/SVG/1.1/DTD/svg11.dtd">
<!-- Creator: CorelDRAW -->
<svg xmlns="http://www.w3.org/2000/svg" xml:space="preserve" width="115px" height="115px" version="1.1" style="shape-rendering:geometricPrecision; text-rendering:geometricPrecision; image-rendering:optimizeQuality; fill-rule:evenodd; clip-rule:evenodd"
viewBox="0 0 2.702 2.702"
 xmlns:xlink="http://www.w3.org/1999/xlink"
 xmlns:xodm="http://www.corel.com/coreldraw/odm/2003">
 <defs>
  <style type="text/css">
   <![CDATA[
    .str0 {stroke:#919191;stroke-width:0.007;stroke-miterlimit:22.9256}
    .fil0 {fill:none}
    .fil2 {fill:white;fill-rule:nonzero}
    .fil1 {fill:#1A1A1A;fill-opacity:0.760784}
   ]]>
  </style>
 </defs>
 <g id="Слой_x0020_1">
  <metadata id="CorelCorpID_0Corel-Layer"/>
  <polygon class="fil0 str0" points="0.003,2.699 2.699,2.699 2.699,0.003 0.003,0.003 "/>
  <polygon class="fil1" points="0.801,1.703 1.797,2.699 2.699,2.699 2.699,1.807 1.863,0.966 1.893,1.024 1.923,1.122 1.922,1.578 1.885,1.693 1.76,1.771 0.938,1.766 "/>
  <g id="_86317980368">
   <path class="fil2" d="M0.976 0.916l0.751 0c0.058,0 0.112,0.024 0.15,0.063 0.036,0.035 0.059,0.083 0.062,0.135l0 0.474c-0.003,0.053 -0.026,0.1 -0.062,0.135 -0.038,0.039 -0.092,0.063 -0.15,0.063l-0.751 0c-0.059,0 -0.112,-0.024 -0.151,-0.063 -0.038,-0.038 -0.062,-0.091 -0.062,-0.15l0 -0.444c0,-0.058 0.024,-0.112 0.062,-0.15 0.039,-0.039 0.092,-0.063 0.151,-0.063zm0.751 0.035l-0.751 0c-0.049,0 -0.094,0.02 -0.126,0.052 -0.032,0.033 -0.053,0.077 -0.053,0.126l0 0.444c0,0.049 0.021,0.094 0.053,0.126 0.032,0.032 0.077,0.052 0.126,0.052l0.751 0c0.049,0 0.093,-0.02 0.126,-0.052 0.032,-0.032 0.052,-0.077 0.052,-0.126l0 -0.444c0,-0.049 -0.02,-0.093 -0.052,-0.126 -0.033,-0.032 -0.077,-0.052 -0.126,-0.052z"/>
   <path class="fil2" d="M1.332 1.185c-0.01,0 -0.018,-0.008 -0.018,-0.017 0,-0.009 0.007,-0.017 0.016,-0.018l0.257 0c0.009,0.001 0.015,0.009 0.015,0.018 0,0.009 -0.007,0.017 -0.017,0.017l-0.253 0z"/>
   <path class="fil2" d="M1.332 1.365c-0.01,0 -0.018,-0.008 -0.018,-0.017 0,-0.01 0.008,-0.017 0.016,-0.018l0.461 0c0.009,0.001 0.016,0.008 0.016,0.018 0,0.009 -0.008,0.017 -0.018,0.017l-0.457 0z"/>
   <path class="fil2" d="M1.332 1.536c-0.01,0 -0.018,-0.008 -0.018,-0.017 0,-0.009 0.007,-0.016 0.015,-0.017l0.365 0c0.009,0.001 0.015,0.008 0.015,0.017 0,0.009 -0.007,0.017 -0.017,0.017l-0.36 0z"/>
   <path class="fil2" d="M1.074 1.388c-0.01,0 -0.018,-0.008 -0.018,-0.018 0,-0.009 0.008,-0.017 0.018,-0.017l0.102 0c0.01,0 0.018,0.008 0.018,0.017l0 0.001c0.001,0.055 -0.012,0.093 -0.037,0.119 -0.025,0.025 -0.062,0.037 -0.109,0.037l-0.001 0c-0.046,-0.002 -0.079,-0.009 -0.103,-0.027 -0.024,-0.017 -0.037,-0.043 -0.045,-0.083l0 -0.147c0.006,-0.022 0.018,-0.05 0.042,-0.072 0.021,-0.02 0.052,-0.034 0.096,-0.035 0.051,-0.001 0.084,0.01 0.106,0.028 0.023,0.019 0.034,0.045 0.039,0.073 0.002,0.01 -0.005,0.019 -0.014,0.02 -0.009,0.002 -0.018,-0.004 -0.02,-0.014 -0.004,-0.021 -0.011,-0.04 -0.027,-0.052 -0.016,-0.013 -0.042,-0.021 -0.083,-0.02 -0.034,0 -0.058,0.011 -0.074,0.026 -0.025,0.022 -0.032,0.053 -0.033,0.069l0.002 0.115c0.006,0.032 0.015,0.052 0.032,0.064 0.017,0.013 0.044,0.018 0.083,0.02 0.038,0 0.066,-0.008 0.084,-0.027 0.016,-0.016 0.025,-0.041 0.027,-0.077l-0.085 0z"/>
  </g>
 </g>
</svg>
