<?xml version="1.0" encoding="UTF-8"?>
<!DOCTYPE svg PUBLIC "-//W3C//DTD SVG 1.1//EN" "http://www.w3.org/Graphics/SVG/1.1/DTD/svg11.dtd">
<!-- Creator: CorelDRAW -->
<svg xmlns="http://www.w3.org/2000/svg" xml:space="preserve" width="115px" height="115px" version="1.1" style="shape-rendering:geometricPrecision; text-rendering:geometricPrecision; image-rendering:optimizeQuality; fill-rule:evenodd; clip-rule:evenodd"
viewBox="0 0 3.073 3.073"
 xmlns:xlink="http://www.w3.org/1999/xlink"
 xmlns:xodm="http://www.corel.com/coreldraw/odm/2003">
 <defs>
  <style type="text/css">
   <![CDATA[
    .str0 {stroke:#919191;stroke-width:0.008;stroke-miterlimit:22.9256}
    .fil0 {fill:none}
    .fil2 {fill:white;fill-rule:nonzero}
    .fil1 {fill:#1A1A1A;fill-opacity:0.760784}
   ]]>
  </style>
 </defs>
 <g id="Слой_x0020_1">
  <metadata id="CorelCorpID_0Corel-Layer"/>
  <polygon class="fil0 str0" points="0.004,3.069 3.069,3.069 3.069,0.004 0.004,0.004 "/>
  <polygon class="fil1" points="0.906,2.023 1.952,3.068 3.069,3.069 3.069,2.124 2.202,1.243 2.206,1.34 2.205,1.901 2.159,2.006 2.046,2.066 1.028,2.066 "/>
  <g id="_86617738976">
   <path class="fil2" d="M2.206 1.872c-0.003,0.05 -0.025,0.095 -0.058,0.128 -0.036,0.036 -0.086,0.059 -0.14,0.059l-0.942 0c-0.055,0 -0.104,-0.023 -0.14,-0.059 -0.036,-0.036 -0.059,-0.085 -0.059,-0.14l0 -0.647c0,-0.055 0.023,-0.104 0.059,-0.14 0.036,-0.036 0.085,-0.059 0.14,-0.059l0.719 0 0 0.045 -0.719 0c-0.043,0 -0.081,0.017 -0.109,0.045 -0.028,0.028 -0.045,0.066 -0.045,0.109l0 0.647c0,0.043 0.017,0.081 0.045,0.109 0.028,0.028 0.066,0.045 0.109,0.045l0.942 0c0.042,0 0.08,-0.017 0.108,-0.045 0.028,-0.028 0.045,-0.066 0.045,-0.109l0 -0.527 0.045 0 0 0.539z"/>
   <path class="fil2" d="M1.684 1.284l0.333 -0.314c0.002,-0.002 0.004,-0.003 0.006,-0.004 0.028,-0.014 0.056,-0.016 0.083,-0.01 0.023,0.005 0.045,0.017 0.061,0.033 0.017,0.017 0.03,0.038 0.036,0.061 0.001,0.004 0.001,0.008 0.002,0.012l0 0.029c-0.002,0.014 -0.006,0.028 -0.013,0.041 -0.001,0.003 -0.003,0.005 -0.005,0.007l-0.327 0.324c-0.002,0.002 -0.005,0.004 -0.008,0.005l-0.182 0.061 -0.003 0.001c-0.009,0.002 -0.016,0.002 -0.024,0.002 -0.008,-0.001 -0.016,-0.004 -0.023,-0.008 -0.004,-0.002 -0.007,-0.005 -0.009,-0.009 -0.004,-0.008 -0.006,-0.016 -0.006,-0.026 -0.001,-0.008 0.001,-0.016 0.003,-0.025 0,-0.001 0.001,-0.003 0.001,-0.004l0.069 -0.168c0.001,-0.003 0.003,-0.006 0.006,-0.008zm0.361 -0.279l-0.328 0.308 -0.066 0.163c-0.001,0.004 -0.002,0.008 -0.002,0.011 0.002,0.001 0.005,0 0.008,0l0.176 -0.059 0.321 -0.319c0.008,-0.017 0.009,-0.033 0.005,-0.049 -0.003,-0.015 -0.011,-0.028 -0.023,-0.039 -0.011,-0.011 -0.025,-0.019 -0.04,-0.022 -0.016,-0.004 -0.034,-0.003 -0.051,0.006z"/>
   <path class="fil2" d="M1.082 1.392c0,0.013 -0.01,0.023 -0.022,0.023 -0.013,0 -0.023,-0.01 -0.023,-0.023l0 -0.078c0,-0.012 0.01,-0.022 0.023,-0.022l0.401 0c0.01,0 0.019,0.007 0.021,0.017l0 0.086c-0.002,0.009 -0.011,0.017 -0.021,0.017 -0.013,0 -0.023,-0.01 -0.023,-0.023l0 -0.052 -0.356 0 0 0.055z"/>
   <path class="fil2" d="M1.282 1.324l0 0.478c0,0.013 -0.01,0.023 -0.022,0.023 -0.012,0 -0.022,-0.01 -0.022,-0.023l0 -0.478 0.044 0z"/>
   <path class="fil2" d="M1.182 1.825c-0.013,0 -0.022,-0.01 -0.022,-0.023 0,-0.01 0.007,-0.019 0.016,-0.021l0.168 0c0.01,0.002 0.017,0.011 0.017,0.021 0,0.013 -0.01,0.023 -0.022,0.023l-0.157 0z"/>
  </g>
 </g>
</svg>
