<?xml-stylesheet href="Corner_down_left_icon.css" type="text/css"?><svg xmlns="http://www.w3.org/2000/svg" xml:space="preserve" width="16" height="16" style="shape-rendering:geometricPrecision;text-rendering:geometricPrecision;image-rendering:optimizeQuality;fill-rule:evenodd;clip-rule:evenodd" viewBox="0 0 0.052 0.052"><path d="M.051.052.052.051.051.049H.009L.005.047.003.043V.002L.002 0 0 .001v.043L.002.05l.007.002z" class="fil0"/><path d="M.005.004q.001-.003.003 0v.002c.001.002-.003.002-.003 0zM.05.046V.045L.048.044H.042Q.038.046.041.047l.007.001zM.006.016Q.007.013.01.015l.001.007q0 .004-.003 0zm.006.016q0-.004.003-.002l.004.005q0 .003-.002.002zm.013.011Q.023.04.027.04l.005.002q.004.003 0 .003z" class="fil0"/></svg>