<?xml-stylesheet href="Corner_up_left_icon.css" type="text/css"?><svg xmlns="http://www.w3.org/2000/svg" xml:space="preserve" width="16" height="16" style="shape-rendering:geometricPrecision;text-rendering:geometricPrecision;image-rendering:optimizeQuality;fill-rule:evenodd;clip-rule:evenodd" viewBox="0 0 0.054 0.054"><path d="m.052 0 .002.002-.002.001H.009L.005.005.003.009v.043L.002.054 0 .053V.009Q0 .004.003.003.004 0 .009 0z" class="fil0"/><path d="M.005.05c0 .002.004.002.004 0V.048Q.008.045.005.048zM.051.006v.001L.05.008.043.009Q.04.007.043.006L.05.005zM.007.038C.006.04.01.04.01.038L.011.032q0-.003-.003-.001zM.013.021Q.012.025.015.023L.019.018Q.021.015.017.016zM.026.01Q.024.013.027.013L.034.011Q.037.008.033.007z" class="fil0"/></svg>