<?xml-stylesheet href="Corner_down_right_icon.css" type="text/css"?><svg xmlns="http://www.w3.org/2000/svg" xml:space="preserve" width="16" height="16" style="shape-rendering:geometricPrecision;text-rendering:geometricPrecision;image-rendering:optimizeQuality;fill-rule:evenodd;clip-rule:evenodd" viewBox="0 0 0.052 0.052"><path d="M.002.052 0 .05.002.048h.041L.047.047.048.043V.002L.05 0l.002.001v.042L.049.049Q.047.051.043.052z" class="fil0"/><path d="M.046.004C.047.002.043.002.043.004v.002q.002.003.003 0zM.003.046V.045L.004.044.01.043q.003.002.001.003L.004.047zm.042-.03C.046.014.042.013.042.015L.041.021q0 .004.003.001zM.04.031Q.04.028.037.03L.033.034Q.032.038.035.037zM.027.042Q.029.039.025.039L.02.041Q.017.044.02.044z" class="fil0"/></svg>