<?xml-stylesheet href="Corner_up_right_icon.css" type="text/css"?><svg xmlns="http://www.w3.org/2000/svg" xml:space="preserve" width="16" height="16" style="shape-rendering:geometricPrecision;text-rendering:geometricPrecision;image-rendering:optimizeQuality;fill-rule:evenodd;clip-rule:evenodd" viewBox="0 0 0.053 0.053"><path d="M.002 0 0 .002l.002.001h.042l.004.002.002.004v.043l.002.001.001-.001V.009L.051.003.044 0z" class="fil0"/><path d="M.048.049q-.001.003-.003 0V.047C.044.045.048.045.048.047zM.003.006v.001l.001.001.007.001q.003-.001 0-.004H.004zm.044.031Q.046.041.043.038L.042.031q0-.003.003-.001zM.041.021q0 .004-.003.002L.034.018Q.033.014.036.015zM.028.01Q.03.013.026.013L.02.011Q.017.008.021.007z" class="fil0"/></svg>