<?xml-stylesheet href="miror_vetrical_icon.css" type="text/css"?><svg xmlns="http://www.w3.org/2000/svg" xml:space="preserve" width="16" height="16" style="shape-rendering:geometricPrecision;text-rendering:geometricPrecision;image-rendering:optimizeQuality;fill-rule:evenodd;clip-rule:evenodd" viewBox="0 0 0.056 0.056"><path d="M.008.01H.003v.036h.016V.039h-.01L.008.037zm.014.026v.012L.021.049H.002L0 .047V.009L.002.007h.007l.002.002v.026h.01zM.026.054q.002.003.004 0V.052Q.028.049.026.052zm0-.011q.002.003.004 0V.039Q.028.036.026.039zm0-.013q.002.003.004 0V.026Q.028.023.026.026zm0-.013q.002.003.004 0V.013Q.028.01.026.013zm0-.014q.002.005.004 0V.002q-.002-.005-.004 0zM.047.007h.007l.002.002v.038L.054.049H.035L.034.048V.036L.035.035h.01V.009zM.052.01H.048v.027L.047.039h-.01v.007h.015z" class="fil0"/></svg>