<?xml-stylesheet href="miror_horisontal_icon.css" type="text/css"?><svg xmlns="http://www.w3.org/2000/svg" xml:space="preserve" width="16" height="16" style="shape-rendering:geometricPrecision;text-rendering:geometricPrecision;image-rendering:optimizeQuality;fill-rule:evenodd;clip-rule:evenodd" viewBox="0 0 0.055 0.055"><path d="M.045.008V.003H.01v.016h.007v-.01L.019.008zM.019.022H.008L.007.02V.002L.008 0h.038l.002.002v.007L.047.011H.02V.02zM.002.026q-.005.002 0 .003h.001q.005-.001 0-.003zm.011 0Q.01.028.013.029h.003Q.02.028.016.026zm.013 0q-.003.002 0 .003h.003q.003-.001 0-.003zm.013 0q-.005.002 0 .003h.003q.003-.001 0-.003zm.013 0q-.004.002 0 .003h.001q.005-.001 0-.003zM.048.046v.007L.046.055H.008L.007.053V.035L.008.033h.011L.02.035v.009h.027zM.045.052V.048H.019L.017.046V.037L.01.036v.016z" class="fil0"/></svg>